<svg xmlns="http://www.w3.org/2000/svg" xmlns:xlink="http://www.w3.org/1999/xlink" width="1080" zoomAndPan="magnify" viewBox="0 0 810 1439.999935" height="1920" preserveAspectRatio="xMidYMid meet" version="1.0"><defs><clipPath id="id1"><path d="M 0 820 L 810 820 L 810 1440 L 0 1440 Z M 0 820 " clip-rule="nonzero"/></clipPath><clipPath id="id2"><path d="M -101.804688 1303.976562 L 835.941406 719.933594 L 1023.878906 1021.695312 L 86.132812 1605.734375 Z M -101.804688 1303.976562 " clip-rule="nonzero"/></clipPath><clipPath id="id3"><path d="M -101.804688 1303.976562 L 835.941406 719.933594 L 1023.878906 1021.695312 L 86.132812 1605.734375 Z M -101.804688 1303.976562 " clip-rule="nonzero"/></clipPath><clipPath id="id4"><path d="M 684.699219 1086.410156 C 638.847656 1114.964844 516.113281 1120.554688 448.152344 1123.519531 C 433.445312 1124.167969 420.84375 1124.78125 411.652344 1125.398438 C 358.296875 1129.269531 338.167969 1154.359375 312.414062 1186.140625 C 289.0625 1214.941406 262.582031 1247.605469 204.191406 1273.121094 C 161.246094 1291.992188 133.183594 1277.34375 106.207031 1263.082031 C 86.863281 1253.210938 68.765625 1243.632812 45.6875 1245.878906 C -15.15625 1252.070312 -25.847656 1289.582031 -36.25 1325.847656 C -41.375 1343.933594 -46.269531 1361.023438 -57.015625 1374.523438 L -58.144531 1373.738281 C -47.703125 1360.429688 -42.808594 1343.335938 -37.742188 1325.5 C -27.128906 1288.890625 -16.167969 1250.785156 45.480469 1244.519531 C 68.863281 1242.082031 87.308594 1251.871094 106.746094 1261.894531 C 133.527344 1275.851562 161.25 1290.289062 203.582031 1271.796875 C 261.664062 1246.472656 287.992188 1213.90625 311.191406 1185.203125 C 336.058594 1154.394531 357.53125 1128.042969 411.441406 1124.039062 C 420.539062 1123.269531 433.234375 1122.808594 447.941406 1122.160156 C 520.578125 1118.835938 655.507812 1112.671875 692.046875 1079.066406 C 699.890625 1071.839844 708.136719 1064.578125 716.746094 1056.875 C 755.925781 1022.046875 800.515625 982.574219 819.914062 937.511719 C 821.914062 932.863281 823.757812 928.308594 825.757812 923.660156 C 842.523438 884.28125 859.578125 843.660156 895 821.597656 C 895.460938 821.308594 895.921875 821.023438 896.535156 820.640625 L 897.296875 821.867188 C 896.839844 822.15625 896.378906 822.441406 895.917969 822.726562 C 860.800781 844.601562 843.804688 884.972656 827.347656 924.160156 C 825.347656 928.808594 823.5 933.363281 821.5 938.011719 C 801.890625 983.417969 757.304688 1022.890625 718.066406 1057.96875 C 709.453125 1065.671875 701.207031 1072.933594 693.363281 1080.160156 C 690.640625 1082.28125 687.917969 1084.402344 684.699219 1086.410156 Z M 666.222656 1095.363281 C 671.1875 1092.054688 676.308594 1088.65625 681.578125 1085.160156 C 735.066406 1049.71875 795.566406 1009.484375 824.929688 948.644531 C 829.695312 938.867188 834.136719 928.230469 838.460938 918.085938 C 853.441406 883.015625 868.859375 846.601562 899.988281 827.214844 C 900.144531 827.117188 900.296875 827.023438 900.449219 826.925781 L 899.6875 825.699219 C 899.53125 825.796875 899.378906 825.890625 899.226562 825.988281 C 867.636719 845.664062 852.214844 882.074219 837.179688 917.398438 C 832.855469 927.539062 828.316406 938.023438 823.648438 947.953125 C 794.496094 1008.449219 733.996094 1048.683594 680.816406 1083.933594 C 675.542969 1087.429688 670.425781 1090.828125 665.460938 1094.136719 C 664.539062 1094.707031 663.773438 1095.1875 662.851562 1095.757812 C 609.332031 1129.089844 464.277344 1144.964844 408.945312 1151.128906 L 408.292969 1151.109375 C 357.042969 1156.644531 332.585938 1180.597656 304.507812 1208.300781 C 279.324219 1233.136719 250.933594 1261.027344 196.859375 1283.21875 C 157.558594 1299.398438 130.753906 1286.089844 104.636719 1273.207031 C 85.488281 1263.644531 67.367188 1254.714844 44.882812 1257.230469 C -13.472656 1264 -23.132812 1302.144531 -32.40625 1339.199219 C -36.761719 1356.804688 -41.042969 1373.515625 -50.410156 1386.15625 L -49.28125 1386.941406 C -39.703125 1373.957031 -35.578125 1357.34375 -31.066406 1339.640625 C -21.90625 1303.085938 -12.363281 1265.4375 45.285156 1258.898438 C 67.421875 1256.171875 85.390625 1265.195312 104.445312 1274.605469 C 130.65625 1287.640625 157.804688 1301.160156 197.71875 1284.597656 C 251.949219 1262.3125 280.546875 1234.074219 305.828125 1209.394531 C 333.753906 1181.789062 357.902344 1158.023438 408.75 1152.527344 L 409.402344 1152.546875 C 464.734375 1146.382812 610.039062 1130.566406 663.867188 1097.042969 C 664.632812 1096.566406 665.554688 1095.992188 666.222656 1095.363281 Z M 828.761719 959.238281 C 835.582031 946.265625 841.234375 932.105469 847.019531 918.503906 C 860.847656 884.996094 875.054688 850.402344 904.097656 832.101562 L 903.335938 830.875 C 873.832031 849.460938 859.46875 884.152344 845.585938 917.90625 C 840.046875 931.570312 834.144531 945.671875 827.480469 958.546875 C 786.921875 1035.933594 709.382812 1074.4375 640.90625 1108.363281 L 638.816406 1109.453125 C 579.75 1139.003906 459.121094 1170.519531 405.085938 1178.425781 C 356.496094 1185.496094 329.269531 1206.710938 297.878906 1231.152344 C 270.960938 1252.175781 240.398438 1275.890625 190.328125 1294.945312 C 153.960938 1308.660156 128.074219 1296.484375 102.875 1284.730469 C 83.953125 1275.875 66.121094 1267.40625 44.632812 1270.152344 C -11.179688 1277.253906 -19.84375 1317.332031 -27.46875 1352.933594 C -30.964844 1370.214844 -34.476562 1386.445312 -42.769531 1398.421875 L -41.640625 1399.207031 C -33.195312 1387.136719 -29.625 1370.660156 -25.976562 1353.277344 C -18.0625 1316.433594 -9.859375 1278.347656 44.992188 1271.417969 C 65.925781 1268.804688 83.664062 1277.121094 102.492188 1285.820312 C 127.785156 1297.726562 154.167969 1310.019531 190.996094 1296.019531 C 241.21875 1276.867188 271.933594 1253.054688 298.855469 1232.035156 C 330.089844 1207.6875 357.164062 1186.570312 405.355469 1179.535156 C 459.386719 1171.628906 580.171875 1140.019531 639.390625 1110.371094 L 641.480469 1109.285156 C 668.15625 1096.074219 696.308594 1082.15625 722.992188 1065.535156 C 765.105469 1039.519531 803.824219 1006.683594 828.761719 959.238281 Z M 832.589844 969.832031 C 840.925781 954.851562 847.523438 937.761719 853.949219 921.421875 C 867.296875 887.152344 879.933594 854.8125 907.554688 836.96875 L 906.792969 835.742188 C 894.160156 843.824219 883.511719 855.773438 874.117188 872.476562 C 865.6875 887.300781 859.089844 904.390625 852.761719 920.882812 C 846.339844 937.226562 839.800781 954.066406 831.460938 969.042969 C 783.097656 1055.761719 700.3125 1092.003906 612.480469 1124.578125 C 589.257812 1133.082031 563.140625 1144.457031 535.605469 1156.289062 C 487.082031 1177.144531 436.933594 1198.804688 402.246094 1205.300781 C 356.867188 1213.777344 326.832031 1231.84375 292.042969 1252.875 C 263.328125 1270.332031 230.53125 1290.121094 184.066406 1306.078125 C 150.730469 1317.480469 125.757812 1306.4375 101.476562 1295.8125 C 82.726562 1287.917969 65.125 1280.15625 44.6875 1282.886719 C -8.328125 1290.371094 -15.558594 1331.046875 -21.941406 1366.9375 C -24.917969 1383.683594 -27.816406 1399.53125 -34.882812 1410.742188 L -33.753906 1411.527344 C -26.382812 1400.128906 -23.578125 1384.125 -20.449219 1367.28125 C -14.03125 1331.796875 -6.914062 1291.617188 45.144531 1284.304688 C 65.179688 1281.613281 82.6875 1289.21875 101.226562 1297.460938 C 125.601562 1308.234375 151.070312 1319.394531 184.714844 1307.804688 C 231.332031 1291.75 264.128906 1271.960938 292.996094 1254.40625 C 327.632812 1233.472656 357.421875 1215.347656 402.644531 1206.96875 C 437.335938 1200.46875 487.636719 1178.714844 536.308594 1157.761719 C 563.847656 1145.933594 589.964844 1134.558594 613.1875 1126.054688 C 656.089844 1110.183594 697.859375 1093.53125 734.972656 1070.417969 C 773.730469 1045.851562 807.640625 1014.519531 832.589844 969.832031 Z M 836.269531 980.519531 C 846.0625 963.78125 853.179688 944.453125 860.03125 925.71875 C 872.515625 891.773438 884.195312 859.605469 910.898438 842.335938 L 910.132812 841.109375 C 883.066406 858.820312 871.234375 891.082031 858.691406 925.277344 C 851.839844 944.011719 844.875 963.242188 834.988281 979.828125 C 775.375 1081.636719 674.960938 1115.878906 585.6875 1139.988281 C 548.328125 1150.066406 514.4375 1171.171875 481.527344 1191.457031 C 452.234375 1209.699219 424.535156 1226.738281 398.886719 1232.714844 C 357.492188 1242.113281 323.722656 1257.609375 287.925781 1273.949219 C 255.175781 1289.027344 221.257812 1304.621094 177.132812 1317.84375 C 147.074219 1326.992188 123.175781 1316.980469 100.058594 1307.546875 C 81.402344 1299.804688 63.78125 1292.695312 44.246094 1295.5 C -6.074219 1303.222656 -11.773438 1344.644531 -16.96875 1381.074219 C -19.179688 1397.34375 -21.40625 1412.5625 -27.496094 1422.949219 L -26.210938 1423.640625 C -19.972656 1413.15625 -17.933594 1397.632812 -15.570312 1381.265625 C -10.492188 1345.335938 -4.65625 1304.46875 44.546875 1297.015625 C 63.738281 1294 81.210938 1301.203125 99.617188 1308.886719 C 123.078125 1318.53125 147.128906 1328.445312 177.589844 1319.261719 C 221.867188 1305.941406 255.785156 1290.347656 288.535156 1275.269531 C 324.085938 1258.875 357.851562 1243.375 399.246094 1233.976562 C 425.148438 1228.0625 452.902344 1210.773438 482.289062 1192.683594 C 514.953125 1172.339844 548.9375 1151.386719 585.894531 1141.347656 C 635.835938 1127.902344 689.289062 1111.207031 737.136719 1081.410156 C 775.167969 1057.722656 809.746094 1025.761719 836.269531 980.519531 Z M 839.945312 991.207031 C 851.140625 972.957031 858.472656 951.582031 865.535156 930.800781 C 877.121094 896.777344 888.246094 864.742188 914.046875 847.394531 L 913.285156 846.167969 C 887.019531 863.800781 875.992188 895.988281 864.101562 930.207031 C 856.941406 950.835938 849.609375 972.210938 838.570312 990.363281 C 807.191406 1041.820312 765.898438 1080.089844 712.3125 1107.507812 C 661.429688 1133.453125 606.144531 1146.183594 558.949219 1155.152344 C 515.179688 1163.476562 485.488281 1191.328125 459.214844 1215.78125 C 438.617188 1234.992188 419.148438 1253.285156 395.640625 1259.628906 C 363.285156 1268.503906 332.4375 1278.777344 299.867188 1289.703125 C 259.746094 1303.199219 218.363281 1317.0625 170.414062 1329.265625 C 143.632812 1336.15625 120.746094 1327.433594 98.855469 1318.9375 C 80.175781 1311.847656 62.589844 1305.140625 43.898438 1308.273438 C -3.625 1316.378906 -8.199219 1360.292969 -11.804688 1395.515625 C -13.4375 1411.003906 -14.898438 1425.742188 -19.855469 1435.214844 L -18.667969 1435.75 C -13.65625 1426.03125 -12.195312 1411.292969 -10.5 1395.554688 C -6.609375 1359.089844 -2.457031 1317.566406 44.355469 1309.6875 C 62.644531 1306.59375 80.230469 1313.300781 98.660156 1320.335938 C 120.953125 1328.792969 143.933594 1337.667969 171.117188 1330.738281 C 219.070312 1318.535156 260.453125 1304.675781 300.574219 1291.179688 C 333.144531 1280.253906 363.894531 1269.824219 396.347656 1261.101562 C 420.007812 1254.664062 439.628906 1236.277344 460.535156 1216.871094 C 486.65625 1192.519531 516.191406 1164.761719 559.652344 1156.628906 C 607.003906 1147.5625 662.382812 1134.988281 713.421875 1108.945312 C 722.179688 1104.554688 730.5 1099.800781 738.472656 1094.832031 C 779.992188 1068.546875 813.484375 1034.496094 839.945312 991.207031 Z M 843.777344 1001.800781 C 856.160156 982.386719 863.613281 958.808594 870.832031 936.226562 C 881.824219 901.933594 892.199219 869.726562 917.601562 852.414062 L 916.933594 851.34375 C 891.226562 868.84375 880.636719 901.394531 869.738281 935.84375 C 862.519531 958.425781 854.972656 981.847656 842.742188 1001.167969 C 763.773438 1125.886719 647.085938 1156.21875 532.707031 1170.433594 C 484.097656 1176.453125 462.328125 1209.160156 443.1875 1237.890625 C 428.882812 1259.351562 415.523438 1279.585938 392.992188 1286.8125 C 326.105469 1308.253906 243.222656 1325.195312 164.34375 1340.703125 C 140.839844 1345.34375 119.367188 1337.863281 98.640625 1330.558594 C 79.753906 1323.8125 61.898438 1317.699219 43.953125 1321.003906 C -1.175781 1329.535156 -3.972656 1374.257812 -6.199219 1410.324219 C -7.125 1425.582031 -7.988281 1438.886719 -11.816406 1447.441406 L -10.628906 1447.976562 C -6.746094 1439.175781 -5.878906 1425.871094 -4.898438 1410.363281 C -2.539062 1374.851562 0.140625 1330.628906 44.3125 1322.269531 C 62.011719 1318.90625 79.558594 1325.210938 98.351562 1331.804688 C 119.328125 1339.167969 140.894531 1346.796875 164.800781 1342.121094 C 243.832031 1326.515625 326.5625 1309.671875 393.601562 1288.132812 C 416.535156 1280.871094 430.109375 1260.289062 444.5625 1238.734375 C 463.550781 1210.097656 485.109375 1177.734375 533.164062 1171.851562 C 603.664062 1163.046875 674.902344 1148.253906 737.929688 1109 C 776.84375 1084.339844 813.246094 1050.175781 843.777344 1001.800781 Z M 847.300781 1012.585938 C 860.875 992.003906 868.328125 966.722656 875.761719 942.09375 C 886.160156 907.53125 896 874.804688 920.847656 857.628906 L 920.179688 856.554688 C 894.875 874.019531 884.972656 906.992188 874.515625 941.804688 C 867.140625 966.183594 859.6875 991.464844 846.265625 1011.953125 C 755.898438 1150.152344 629.183594 1177.367188 505.757812 1185.941406 C 452.863281 1189.519531 439.777344 1226.605469 428.234375 1259.332031 C 419.765625 1283.328125 411.742188 1305.984375 389.632812 1314.222656 C 341.960938 1332 270.636719 1339.824219 207.664062 1346.703125 C 189.910156 1348.609375 173.210938 1350.5 157.660156 1352.527344 C 137.777344 1355.121094 118.027344 1348.699219 98.871094 1342.542969 C 79.273438 1336.027344 60.804688 1330.292969 43.449219 1333.867188 C 0.808594 1342.980469 -0.230469 1390.859375 -1.015625 1425.820312 C -1.308594 1440.046875 -1.539062 1452.316406 -4.332031 1459.800781 L -2.992188 1460.242188 C -0.144531 1452.511719 0.242188 1440.144531 0.4375 1425.765625 C 1.324219 1389.253906 2.28125 1343.976562 43.8125 1335.132812 C 60.917969 1331.5 79.078125 1337.421875 98.484375 1343.636719 C 117.644531 1349.789062 137.640625 1356.269531 157.925781 1353.636719 C 173.476562 1351.613281 190.273438 1349.875 207.929688 1347.8125 C 271.058594 1340.839844 342.53125 1332.917969 390.203125 1315.144531 C 412.871094 1306.769531 421.011719 1283.617188 429.535156 1259.371094 C 441.464844 1225.558594 453.933594 1190.558594 505.929688 1186.898438 C 584.445312 1181.402344 664.453125 1168.382812 735.453125 1124.160156 C 776.339844 1098.90625 814.144531 1063.234375 847.300781 1012.585938 Z M 851.132812 1023.179688 C 865.742188 1001.527344 873.351562 974.445312 880.632812 948.207031 C 890.496094 913.125 899.746094 880.132812 924.34375 862.898438 L 923.675781 861.824219 C 898.617188 879.347656 889.40625 912.742188 879.390625 947.917969 C 872.011719 974.003906 864.554688 1000.988281 850.097656 1022.546875 C 804.425781 1090.351562 749.390625 1136.96875 681.441406 1165.246094 C 626.445312 1188.007812 564.042969 1199.214844 479.421875 1201.066406 C 422.585938 1202.421875 418.308594 1241.683594 414.21875 1279.546875 C 411.378906 1306.425781 408.636719 1331.75 386.636719 1341.195312 C 342.640625 1360.085938 260.988281 1361.578125 195.535156 1362.765625 C 179.335938 1363.070312 164.1875 1363.355469 151.089844 1363.851562 C 134.929688 1364.558594 117.398438 1359.304688 100.457031 1354.320312 C 79.691406 1348.320312 60.324219 1342.507812 43.101562 1346.640625 C 2.703125 1356.269531 3.765625 1405.820312 4.394531 1442.027344 C 4.695312 1454.816406 4.910156 1465.746094 3.15625 1472.160156 L 4.398438 1472.449219 C 6.210938 1465.789062 5.902344 1454.703125 5.753906 1441.816406 C 5.011719 1406.109375 4.175781 1357.265625 43.371094 1347.75 C 60.035156 1343.753906 79.558594 1349.46875 99.921875 1355.507812 C 116.859375 1360.492188 134.542969 1365.648438 150.953125 1365 C 164.054688 1364.503906 179.199219 1364.21875 195.398438 1363.914062 C 261.101562 1362.785156 342.753906 1361.292969 387.054688 1342.210938 C 409.515625 1332.480469 412.375 1306.65625 415.425781 1279.433594 C 419.398438 1242.066406 423.65625 1203.457031 479.285156 1202.214844 C 564.210938 1200.171875 626.714844 1189.121094 681.863281 1166.261719 C 699.988281 1158.800781 717.257812 1149.960938 733.664062 1139.742188 C 778.90625 1111.566406 817.652344 1072.96875 851.132812 1023.179688 Z M 854.960938 1033.773438 C 870.605469 1011.046875 878.21875 982.265625 885.503906 954.320312 C 894.679688 918.820312 903.546875 885.210938 927.894531 867.917969 L 927.226562 866.847656 C 902.515625 884.578125 893.742188 918.339844 884.261719 954.03125 C 877.035156 981.726562 869.515625 1010.664062 853.929688 1033.136719 C 803.480469 1106.261719 743.539062 1155.933594 670.820312 1184.414062 C 611.648438 1207.648438 542.410156 1217.792969 452.777344 1216.382812 C 432.539062 1216.007812 418.515625 1220.488281 409.59375 1230.085938 C 394.917969 1245.824219 397.382812 1273.011719 399.921875 1299.304688 C 402.644531 1329.308594 405.375 1357.613281 383.582031 1368.417969 C 339.234375 1390.503906 230.125 1382.078125 164.816406 1377.007812 C 157.464844 1376.480469 150.515625 1375.914062 144.558594 1375.578125 C 132.554688 1374.757812 118.984375 1371.082031 104.574219 1367.078125 C 82.753906 1361.09375 60.1875 1354.933594 42.851562 1359.5625 C 4.230469 1370 7.96875 1423.84375 10.320312 1459.398438 C 10.988281 1470.046875 11.605469 1479.234375 10.886719 1484.578125 L 12.285156 1484.769531 C 13.15625 1479.335938 12.445312 1469.988281 11.773438 1459.34375 C 9.460938 1424.1875 5.953125 1371.054688 43.367188 1360.730469 C 60.300781 1356.140625 82.867188 1362.300781 104.4375 1368.226562 C 118.847656 1372.230469 132.417969 1375.90625 144.578125 1376.632812 C 150.628906 1377.121094 157.480469 1377.53125 164.832031 1378.058594 C 230.140625 1383.128906 339.65625 1391.519531 384.15625 1369.335938 C 385.171875 1368.917969 386.09375 1368.34375 387.011719 1367.769531 C 406.488281 1355.640625 403.988281 1328.046875 401.183594 1298.941406 C 398.835938 1272.957031 396.316406 1246.015625 410.628906 1230.71875 C 419.183594 1221.5625 433.054688 1217.179688 452.796875 1217.4375 C 542.675781 1218.90625 612.070312 1208.664062 671.394531 1185.335938 C 692.453125 1177.113281 712.363281 1167.050781 731.378906 1155.207031 C 778.09375 1126.328125 818.949219 1085.988281 854.960938 1033.773438 Z M 386.253906 1318.027344 C 378.914062 1289.835938 371.304688 1260.53125 384.121094 1244.886719 C 391.625 1235.746094 405.128906 1231.804688 425.75 1232.789062 C 521.792969 1237.65625 596.410156 1228.632812 660.464844 1204.695312 C 738.066406 1175.511719 802.953125 1123.183594 858.542969 1044.308594 C 875.320312 1020.667969 882.6875 990.121094 889.824219 960.570312 C 898.617188 924.453125 906.792969 890.425781 930.949219 872.824219 L 930.128906 871.847656 C 905.664062 889.636719 897.277344 924.011719 888.578125 960.28125 C 881.441406 989.832031 873.980469 1020.222656 857.511719 1043.671875 C 802.132812 1122.207031 737.492188 1174.59375 659.949219 1203.527344 C 596.144531 1227.519531 521.679688 1236.449219 425.792969 1231.488281 C 404.671875 1230.386719 390.859375 1234.519531 383.144531 1244.007812 C 369.964844 1260.089844 377.609375 1289.796875 384.992188 1318.390625 C 393.492188 1351.179688 401.503906 1382.152344 381.105469 1394.855469 C 380.800781 1395.042969 380.492188 1395.234375 380.1875 1395.425781 C 361.402344 1406.273438 320.398438 1409.472656 261.699219 1404.753906 C 216.648438 1401.109375 167.066406 1393.265625 137.742188 1386.847656 C 131.367188 1385.496094 123.867188 1383.363281 115.867188 1381.109375 C 91.710938 1374.449219 61.394531 1366.097656 42.3125 1372.023438 C 5.355469 1383.765625 12.8125 1445.292969 16.738281 1478.59375 C 17.738281 1486.691406 18.496094 1493.03125 18.375 1496.9375 L 19.675781 1496.976562 C 19.703125 1492.917969 18.945312 1486.578125 17.945312 1478.480469 C 14 1445.832031 6.675781 1384.859375 42.867188 1373.597656 C 61.546875 1367.707031 91.613281 1376 115.613281 1382.757812 C 123.613281 1385.007812 131.117188 1387.144531 137.644531 1388.398438 C 186.339844 1398.921875 335.523438 1422.816406 380.890625 1396.902344 C 381.199219 1396.710938 381.503906 1396.519531 381.8125 1396.328125 C 403.03125 1382.898438 394.585938 1349.859375 386.253906 1318.027344 Z M 377.953125 1423.625 C 400.117188 1408.972656 385.378906 1371.980469 371.097656 1336.40625 C 358.914062 1305.910156 346.308594 1274.394531 357.980469 1258.617188 C 364.621094 1249.800781 378.011719 1246.355469 399.261719 1248.011719 C 501.460938 1256.277344 581.152344 1248.558594 649.84375 1223.863281 C 732.269531 1194.230469 801.757812 1139.035156 862.375 1054.898438 C 880.035156 1030.285156 887.402344 998.035156 894.386719 966.875 C 902.648438 930.242188 910.441406 895.597656 934.351562 877.941406 L 933.777344 877.023438 C 909.410156 894.964844 901.554688 929.855469 893.238281 966.738281 C 886.160156 997.746094 878.941406 1029.898438 861.339844 1054.265625 C 800.9375 1138.058594 731.601562 1193.15625 649.421875 1222.847656 C 580.886719 1247.449219 501.351562 1255.070312 399.398438 1246.863281 C 377.648438 1245.089844 363.796875 1248.824219 356.945312 1257.984375 C 344.855469 1274.449219 356.941406 1304.796875 369.925781 1336.921875 C 383.921875 1372.035156 398.433594 1408.320312 377.285156 1422.550781 C 354.609375 1437.742188 291.734375 1431.792969 256.394531 1426.992188 C 202.234375 1419.660156 151.609375 1406.722656 131.519531 1398.382812 C 112.269531 1390.371094 65.226562 1376.691406 42.214844 1384.851562 C 5.003906 1398.238281 19.351562 1473.5625 24.742188 1501.695312 C 25.347656 1504.71875 25.917969 1507.34375 26.164062 1509.105469 L 27.523438 1508.898438 C 27.183594 1506.980469 26.710938 1504.511719 26.101562 1501.484375 C 20.808594 1473.503906 6.632812 1399.140625 42.671875 1386.269531 C 63.308594 1378.738281 106.679688 1389.597656 130.921875 1399.816406 C 173.382812 1417.417969 335.878906 1450.042969 377.128906 1424.351562 C 377.339844 1424.007812 377.648438 1423.816406 377.953125 1423.625 Z M 377.953125 1423.625 " clip-rule="nonzero"/></clipPath><linearGradient x1="8.528425" gradientTransform="matrix(1.533518, -0.955096, 0.954796, 1.533036, -116.446471, 1282.175946)" y1="117.318001" x2="570.34204" gradientUnits="userSpaceOnUse" y2="117.318001" id="id5"><stop stop-opacity="1" stop-color="rgb(59.701538%, 2.642822%, 50.323486%)" offset="0"/><stop stop-opacity="1" stop-color="rgb(59.538269%, 2.612305%, 50.392151%)" offset="0.015625"/><stop stop-opacity="1" stop-color="rgb(59.211731%, 2.55127%, 50.527954%)" offset="0.03125"/><stop stop-opacity="1" stop-color="rgb(58.885193%, 2.488708%, 50.663757%)" offset="0.046875"/><stop stop-opacity="1" stop-color="rgb(58.560181%, 2.427673%, 50.801086%)" offset="0.0625"/><stop stop-opacity="1" stop-color="rgb(58.233643%, 2.366638%, 50.93689%)" offset="0.078125"/><stop stop-opacity="1" stop-color="rgb(57.907104%, 2.304077%, 51.072693%)" offset="0.09375"/><stop stop-opacity="1" stop-color="rgb(57.580566%, 2.243042%, 51.210022%)" offset="0.109375"/><stop stop-opacity="1" stop-color="rgb(57.255554%, 2.182007%, 51.345825%)" offset="0.125"/><stop stop-opacity="1" stop-color="rgb(56.929016%, 2.120972%, 51.481628%)" offset="0.140625"/><stop stop-opacity="1" stop-color="rgb(56.602478%, 2.058411%, 51.618958%)" offset="0.15625"/><stop stop-opacity="1" stop-color="rgb(56.277466%, 1.997375%, 51.754761%)" offset="0.171875"/><stop stop-opacity="1" stop-color="rgb(55.950928%, 1.93634%, 51.890564%)" offset="0.1875"/><stop stop-opacity="1" stop-color="rgb(55.62439%, 1.873779%, 52.027893%)" offset="0.203125"/><stop stop-opacity="1" stop-color="rgb(55.297852%, 1.812744%, 52.163696%)" offset="0.21875"/><stop stop-opacity="1" stop-color="rgb(54.972839%, 1.751709%, 52.2995%)" offset="0.234375"/><stop stop-opacity="1" stop-color="rgb(54.646301%, 1.689148%, 52.436829%)" offset="0.25"/><stop stop-opacity="1" stop-color="rgb(54.319763%, 1.628113%, 52.572632%)" offset="0.265625"/><stop stop-opacity="1" stop-color="rgb(53.994751%, 1.567078%, 52.708435%)" offset="0.28125"/><stop stop-opacity="1" stop-color="rgb(53.668213%, 1.506042%, 52.845764%)" offset="0.296875"/><stop stop-opacity="1" stop-color="rgb(53.341675%, 1.443481%, 52.981567%)" offset="0.3125"/><stop stop-opacity="1" stop-color="rgb(53.015137%, 1.382446%, 53.117371%)" offset="0.328125"/><stop stop-opacity="1" stop-color="rgb(52.690125%, 1.321411%, 53.2547%)" offset="0.34375"/><stop stop-opacity="1" stop-color="rgb(52.363586%, 1.25885%, 53.390503%)" offset="0.359375"/><stop stop-opacity="1" stop-color="rgb(52.037048%, 1.197815%, 53.526306%)" offset="0.375"/><stop stop-opacity="1" stop-color="rgb(51.712036%, 1.13678%, 53.663635%)" offset="0.390625"/><stop stop-opacity="1" stop-color="rgb(51.385498%, 1.075745%, 53.799438%)" offset="0.40625"/><stop stop-opacity="1" stop-color="rgb(51.05896%, 1.013184%, 53.935242%)" offset="0.421875"/><stop stop-opacity="1" stop-color="rgb(50.732422%, 0.952148%, 54.072571%)" offset="0.4375"/><stop stop-opacity="1" stop-color="rgb(50.40741%, 0.891113%, 54.208374%)" offset="0.453125"/><stop stop-opacity="1" stop-color="rgb(50.080872%, 0.828552%, 54.344177%)" offset="0.46875"/><stop stop-opacity="1" stop-color="rgb(49.754333%, 0.767517%, 54.481506%)" offset="0.484375"/><stop stop-opacity="1" stop-color="rgb(49.429321%, 0.706482%, 54.61731%)" offset="0.5"/><stop stop-opacity="1" stop-color="rgb(49.102783%, 0.645447%, 54.753113%)" offset="0.515625"/><stop stop-opacity="1" stop-color="rgb(48.776245%, 0.582886%, 54.890442%)" offset="0.53125"/><stop stop-opacity="1" stop-color="rgb(48.449707%, 0.521851%, 55.026245%)" offset="0.546875"/><stop stop-opacity="1" stop-color="rgb(48.124695%, 0.460815%, 55.162048%)" offset="0.5625"/><stop stop-opacity="1" stop-color="rgb(47.879028%, 0.415039%, 55.264282%)" offset="0.570312"/><stop stop-opacity="1" stop-color="rgb(47.65625%, 0.396729%, 55.212402%)" offset="0.578125"/><stop stop-opacity="1" stop-color="rgb(47.375488%, 0.389099%, 55.039978%)" offset="0.585937"/><stop stop-opacity="1" stop-color="rgb(47.094727%, 0.382996%, 54.867554%)" offset="0.59375"/><stop stop-opacity="1" stop-color="rgb(46.812439%, 0.376892%, 54.696655%)" offset="0.601562"/><stop stop-opacity="1" stop-color="rgb(46.531677%, 0.370789%, 54.524231%)" offset="0.609375"/><stop stop-opacity="1" stop-color="rgb(46.250916%, 0.364685%, 54.351807%)" offset="0.617188"/><stop stop-opacity="1" stop-color="rgb(45.968628%, 0.358582%, 54.180908%)" offset="0.625"/><stop stop-opacity="1" stop-color="rgb(45.687866%, 0.352478%, 54.008484%)" offset="0.632812"/><stop stop-opacity="1" stop-color="rgb(45.407104%, 0.346375%, 53.83606%)" offset="0.640625"/><stop stop-opacity="1" stop-color="rgb(45.124817%, 0.340271%, 53.665161%)" offset="0.648438"/><stop stop-opacity="1" stop-color="rgb(44.844055%, 0.334167%, 53.492737%)" offset="0.65625"/><stop stop-opacity="1" stop-color="rgb(44.563293%, 0.326538%, 53.321838%)" offset="0.664062"/><stop stop-opacity="1" stop-color="rgb(44.281006%, 0.320435%, 53.149414%)" offset="0.671875"/><stop stop-opacity="1" stop-color="rgb(44.000244%, 0.314331%, 52.97699%)" offset="0.679688"/><stop stop-opacity="1" stop-color="rgb(43.719482%, 0.308228%, 52.806091%)" offset="0.6875"/><stop stop-opacity="1" stop-color="rgb(43.437195%, 0.302124%, 52.633667%)" offset="0.695312"/><stop stop-opacity="1" stop-color="rgb(43.156433%, 0.296021%, 52.461243%)" offset="0.703125"/><stop stop-opacity="1" stop-color="rgb(42.875671%, 0.289917%, 52.290344%)" offset="0.710938"/><stop stop-opacity="1" stop-color="rgb(42.593384%, 0.283813%, 52.11792%)" offset="0.71875"/><stop stop-opacity="1" stop-color="rgb(42.312622%, 0.27771%, 51.945496%)" offset="0.726562"/><stop stop-opacity="1" stop-color="rgb(42.03186%, 0.271606%, 51.774597%)" offset="0.734375"/><stop stop-opacity="1" stop-color="rgb(41.749573%, 0.265503%, 51.602173%)" offset="0.742188"/><stop stop-opacity="1" stop-color="rgb(41.468811%, 0.257874%, 51.429749%)" offset="0.75"/><stop stop-opacity="1" stop-color="rgb(41.188049%, 0.25177%, 51.25885%)" offset="0.757812"/><stop stop-opacity="1" stop-color="rgb(40.905762%, 0.245667%, 51.086426%)" offset="0.765625"/><stop stop-opacity="1" stop-color="rgb(40.625%, 0.239563%, 50.914001%)" offset="0.773438"/><stop stop-opacity="1" stop-color="rgb(40.344238%, 0.233459%, 50.743103%)" offset="0.78125"/><stop stop-opacity="1" stop-color="rgb(40.061951%, 0.227356%, 50.570679%)" offset="0.789063"/><stop stop-opacity="1" stop-color="rgb(39.781189%, 0.221252%, 50.39978%)" offset="0.796875"/><stop stop-opacity="1" stop-color="rgb(39.500427%, 0.215149%, 50.227356%)" offset="0.804688"/><stop stop-opacity="1" stop-color="rgb(39.21814%, 0.209045%, 50.054932%)" offset="0.8125"/><stop stop-opacity="1" stop-color="rgb(38.937378%, 0.202942%, 49.884033%)" offset="0.820312"/><stop stop-opacity="1" stop-color="rgb(38.656616%, 0.195312%, 49.711609%)" offset="0.828125"/><stop stop-opacity="1" stop-color="rgb(38.374329%, 0.189209%, 49.539185%)" offset="0.835938"/><stop stop-opacity="1" stop-color="rgb(38.093567%, 0.183105%, 49.368286%)" offset="0.84375"/><stop stop-opacity="1" stop-color="rgb(37.812805%, 0.177002%, 49.195862%)" offset="0.851562"/><stop stop-opacity="1" stop-color="rgb(37.530518%, 0.170898%, 49.023438%)" offset="0.859375"/><stop stop-opacity="1" stop-color="rgb(37.249756%, 0.164795%, 48.852539%)" offset="0.867188"/><stop stop-opacity="1" stop-color="rgb(36.968994%, 0.158691%, 48.680115%)" offset="0.875"/><stop stop-opacity="1" stop-color="rgb(36.686707%, 0.152588%, 48.50769%)" offset="0.882812"/><stop stop-opacity="1" stop-color="rgb(36.405945%, 0.146484%, 48.336792%)" offset="0.890625"/><stop stop-opacity="1" stop-color="rgb(36.125183%, 0.140381%, 48.164368%)" offset="0.898437"/><stop stop-opacity="1" stop-color="rgb(35.842896%, 0.132751%, 47.991943%)" offset="0.90625"/><stop stop-opacity="1" stop-color="rgb(35.562134%, 0.126648%, 47.821045%)" offset="0.914062"/><stop stop-opacity="1" stop-color="rgb(35.281372%, 0.120544%, 47.648621%)" offset="0.921875"/><stop stop-opacity="1" stop-color="rgb(34.999084%, 0.114441%, 47.477722%)" offset="0.929688"/><stop stop-opacity="1" stop-color="rgb(34.718323%, 0.108337%, 47.305298%)" offset="0.9375"/><stop stop-opacity="1" stop-color="rgb(34.437561%, 0.102234%, 47.132874%)" offset="0.945312"/><stop stop-opacity="1" stop-color="rgb(34.155273%, 0.0961304%, 46.961975%)" offset="0.953125"/><stop stop-opacity="1" stop-color="rgb(33.874512%, 0.0900269%, 46.789551%)" offset="0.960938"/><stop stop-opacity="1" stop-color="rgb(33.59375%, 0.0839233%, 46.617126%)" offset="0.96875"/><stop stop-opacity="1" stop-color="rgb(33.311462%, 0.0778198%, 46.446228%)" offset="0.976562"/><stop stop-opacity="1" stop-color="rgb(33.030701%, 0.0717163%, 46.273804%)" offset="0.984375"/><stop stop-opacity="1" stop-color="rgb(32.749939%, 0.0640869%, 46.101379%)" offset="0.992188"/><stop stop-opacity="1" stop-color="rgb(32.467651%, 0.0579834%, 45.930481%)" offset="1"/></linearGradient></defs><rect x="-81" width="972" fill="#ffffff" y="-143.999994" height="1727.999922" fill-opacity="1"/><rect x="-81" width="972" fill="#000000" y="-143.999994" height="1727.999922" fill-opacity="1"/><rect x="-81" width="972" fill="#ffffff" y="-143.999994" height="1727.999922" fill-opacity="1"/><rect x="-81" width="972" fill="#000000" y="-143.999994" height="1727.999922" fill-opacity="1"/><g clip-path="url(#id1)"><g clip-path="url(#id2)"><g clip-path="url(#id3)"><g clip-path="url(#id4)"><path fill="url(#id5)" d="M -277.933594 993.742188 L 226.382812 1803.484375 L 1087.933594 1266.898438 L 583.617188 457.15625 Z M -277.933594 993.742188 " fill-rule="nonzero"/></g></g></g></g><path fill="#990780" d="M 508.679688 472.015625 C 584.140625 437.082031 579.558594 358.050781 535.804688 304.625 C 507.136719 269.648438 475.359375 242.980469 457.097656 215.070312 C 457.074219 215.027344 457.050781 215 457.003906 214.957031 C 442.796875 193.195312 436.808594 170.675781 446.964844 142.878906 C 454.585938 124.25 478.558594 100.300781 502.253906 96.222656 C 508.125 151.03125 564.335938 198.375 598.878906 242.3125 C 663.585938 324.570312 645.808594 444.753906 508.679688 472.015625 " fill-opacity="1" fill-rule="nonzero"/><path fill="#4c0071" d="M 502.253906 96.226562 C 502.929688 101.214844 503.925781 106.152344 505.304688 110.984375 C 506.734375 115.800781 508.367188 120.550781 510.382812 125.152344 C 514.375 134.363281 519.34375 143.121094 524.929688 151.453125 C 536.011719 168.203125 549.203125 183.441406 562.589844 198.441406 C 569.300781 205.929688 576.09375 213.363281 582.746094 220.941406 C 589.378906 228.535156 596.015625 236.136719 602.109375 244.238281 C 608.316406 252.265625 613.738281 260.898438 618.425781 269.902344 C 623.105469 278.90625 627.136719 288.289062 630.03125 298.042969 C 635.828125 317.496094 638.09375 338.207031 635.148438 358.398438 C 632.3125 378.519531 624.6875 398.15625 612.238281 414.289062 C 606.085938 422.375 599.0625 429.800781 591.203125 436.222656 C 583.304688 442.574219 574.859375 448.238281 565.902344 452.945312 C 556.871094 457.488281 547.605469 461.59375 537.960938 464.582031 C 533.207031 466.289062 528.296875 467.464844 523.4375 468.804688 C 521.023438 469.511719 518.53125 469.929688 516.070312 470.472656 L 508.679688 472.019531 C 528.3125 467.644531 547.585938 461.257812 565.164062 451.578125 C 573.957031 446.765625 582.226562 441.0625 589.917969 434.683594 C 597.570312 428.246094 604.363281 420.847656 610.277344 412.835938 C 622.160156 396.8125 629.652344 377.71875 632.292969 358.003906 C 635.078125 338.257812 632.757812 318 627 298.964844 C 624.210938 289.390625 620.292969 280.164062 615.742188 271.292969 C 611.179688 262.425781 605.886719 253.910156 599.8125 245.976562 C 587.742188 229.996094 573.902344 215.3125 560.765625 200.046875 C 547.582031 184.824219 534.523438 169.339844 523.632812 152.292969 C 518.207031 143.777344 513.40625 134.832031 509.609375 125.472656 C 507.695312 120.796875 506.15625 115.976562 504.84375 111.109375 C 503.613281 106.214844 502.773438 101.234375 502.253906 96.226562 " fill-opacity="1" fill-rule="nonzero"/><path fill="#4c0071" d="M 503.039062 217.304688 C 484.40625 204.570312 474.480469 186.722656 474.480469 186.722656 C 472.363281 198.558594 472.570312 209.199219 473.398438 217.191406 C 455.554688 193.792969 448.667969 173.414062 458.15625 147.210938 C 463.429688 134.472656 477.890625 119.136719 492.902344 111.859375 C 501.863281 147.667969 528.527344 179.863281 554.226562 208.921875 C 518.257812 201.851562 498.683594 181.128906 498.683594 181.128906 C 497.949219 197.179688 503.039062 217.304688 503.039062 217.304688 " fill-opacity="1" fill-rule="nonzero"/><path fill="#7a018d" d="M 603.921875 384.121094 C 593.328125 420.574219 570.417969 452.882812 508.679688 472.015625 C 584.140625 437.082031 579.558594 358.054688 535.804688 304.628906 C 507.136719 269.648438 475.359375 242.984375 457.097656 215.070312 C 494.285156 268.265625 513.375 260.070312 573.339844 321.785156 L 575.691406 306.402344 C 603.324219 346.859375 589.230469 395.289062 589.230469 395.289062 Z M 603.921875 384.121094 " fill-opacity="1" fill-rule="nonzero"/><path fill="#4c0071" d="M 503.039062 217.304688 C 484.40625 204.570312 474.480469 186.722656 474.480469 186.722656 C 472.363281 198.558594 472.570312 209.199219 473.398438 217.191406 C 455.554688 193.792969 448.667969 173.414062 458.15625 147.210938 C 463.429688 134.472656 477.890625 119.136719 492.902344 111.859375 C 475.453125 132.769531 474.863281 154.230469 480.15625 168.925781 C 480.15625 168.925781 483.09375 157.167969 494.265625 150.113281 C 494.265625 150.113281 512.523438 192.828125 554.226562 208.921875 C 518.257812 201.851562 498.683594 181.128906 498.683594 181.128906 C 497.949219 197.179688 503.039062 217.304688 503.039062 217.304688 " fill-opacity="1" fill-rule="nonzero"/><path fill="#ff4700" d="M 275.835938 173.464844 C 268.472656 177.84375 260.269531 183.707031 251.433594 191.277344 C 246.695312 181.222656 242.746094 168.925781 239.859375 155.894531 C 255.441406 135.742188 269.09375 127.648438 269.09375 127.648438 C 269.273438 137.664062 270.914062 155.515625 275.835938 173.464844 " fill-opacity="1" fill-rule="nonzero"/><path fill="#7a018d" d="M 275.835938 173.464844 C 268.472656 177.84375 260.269531 183.707031 251.433594 191.277344 C 246.695312 181.222656 242.746094 168.925781 239.859375 155.894531 C 255.441406 135.742188 269.09375 127.648438 269.09375 127.648438 C 269.273438 137.664062 270.914062 155.515625 275.835938 173.464844 " fill-opacity="1" fill-rule="nonzero"/><path fill="#4c0071" d="M 268.351562 175.636719 C 264.351562 163.738281 262.566406 151.777344 262.0625 145.035156 C 262.0625 145.035156 253.179688 151.007812 243.453125 165.175781 L 249.605469 187.917969 L 268.828125 180.328125 " fill-opacity="1" fill-rule="nonzero"/><path fill="#990780" d="M 332.722656 472.015625 C 330.8125 472.015625 328.902344 471.992188 327.035156 471.945312 C 152.988281 468.011719 129.734375 292.054688 190.503906 215.070312 C 206.4375 194.898438 196.191406 148.152344 245.378906 113.402344 C 244.550781 122.753906 244.457031 132.632812 245.058594 142.1875 C 245.746094 153.796875 247.449219 164.941406 250.144531 174.265625 C 258.804688 168.96875 266.703125 165.03125 273.632812 162.292969 C 285.355469 157.570312 294.425781 156.121094 300.207031 156.488281 C 307.1875 156.972656 314.53125 163.605469 326.089844 166.414062 C 350.433594 162.292969 369.890625 155.246094 394.4375 142.878906 C 417.625 206.34375 356.695312 242.335938 305.597656 304.625 C 261.84375 358.050781 257.261719 437.082031 332.722656 472.015625 " fill-opacity="1" fill-rule="nonzero"/><path fill="#4c0071" d="M 327.035156 471.945312 L 312.015625 471.367188 C 307.023438 470.945312 302.046875 470.3125 297.054688 469.789062 C 292.101562 469.03125 287.175781 468.039062 282.226562 467.175781 C 277.359375 465.949219 272.472656 464.75 267.636719 463.378906 C 248.429688 457.425781 230.214844 448.019531 214.46875 435.355469 C 206.792969 428.824219 199.378906 421.855469 193.238281 413.804688 C 189.925781 409.972656 187.261719 405.664062 184.347656 401.535156 C 182.976562 399.414062 181.765625 397.191406 180.46875 395.019531 L 178.554688 391.75 C 177.941406 390.644531 177.421875 389.492188 176.847656 388.367188 L 173.492188 381.566406 L 170.609375 374.554688 C 170.140625 373.386719 169.628906 372.226562 169.195312 371.042969 L 167.992188 367.449219 C 167.214844 365.046875 166.335938 362.671875 165.640625 360.246094 C 164.375 355.355469 162.929688 350.507812 162.078125 345.519531 L 161.339844 341.804688 L 160.976562 339.945312 L 160.71875 338.070312 L 159.699219 330.5625 C 157.632812 310.472656 158.6875 290.023438 163.390625 270.367188 C 165.734375 260.554688 168.796875 250.871094 173.058594 241.695312 C 177.273438 232.527344 182.207031 223.605469 188.546875 215.691406 C 194.875 208.128906 197.140625 198.1875 199.59375 188.550781 C 201.96875 178.84375 204.351562 169.019531 208.085938 159.644531 C 211.804688 150.273438 216.851562 141.417969 223.175781 133.589844 C 226.355469 129.691406 229.851562 126.066406 233.554688 122.679688 C 237.265625 119.296875 241.289062 116.289062 245.378906 113.402344 C 237.324219 119.351562 229.960938 126.234375 223.835938 134.113281 C 217.753906 142.023438 212.984375 150.875 209.535156 160.203125 C 206.007812 169.519531 203.773438 179.253906 201.542969 189.019531 C 200.410156 193.902344 199.238281 198.804688 197.617188 203.625 C 196.777344 206.023438 195.871094 208.421875 194.660156 210.707031 C 194.105469 211.867188 193.394531 212.960938 192.703125 214.058594 L 190.480469 217.175781 L 186.160156 223.21875 L 182.300781 229.574219 L 181.335938 231.160156 L 180.476562 232.808594 L 178.765625 236.109375 L 177.058594 239.414062 C 176.527344 240.53125 176.0625 241.683594 175.558594 242.816406 C 171.421875 251.835938 168.460938 261.371094 166.199219 271.023438 C 161.664062 290.367188 160.738281 310.492188 162.847656 330.214844 L 163.8125 337.59375 L 164.054688 339.4375 L 164.40625 341.265625 L 165.117188 344.921875 C 165.925781 349.824219 167.324219 354.589844 168.542969 359.402344 C 169.214844 361.789062 170.070312 364.121094 170.820312 366.484375 L 171.984375 370.019531 C 172.402344 371.1875 172.902344 372.324219 173.359375 373.476562 L 176.15625 380.375 L 179.417969 387.0625 C 179.972656 388.167969 180.476562 389.304688 181.074219 390.390625 L 182.9375 393.609375 C 184.203125 395.742188 185.378906 397.933594 186.714844 400.019531 C 189.554688 404.082031 192.148438 408.332031 195.382812 412.101562 C 201.394531 420.007812 208.570312 426.933594 216.015625 433.484375 C 231.316406 446.164062 249.160156 455.699219 268.105469 461.90625 C 287.050781 468.222656 307.042969 471.0625 327.035156 471.945312 " fill-opacity="1" fill-rule="nonzero"/><path fill="#7a018d" d="M 332.722656 472.015625 C 157.183594 452.882812 173.644531 261.425781 247.910156 226.148438 C 237.921875 224.390625 219.5 224.585938 219.5 224.585938 C 244.585938 195.582031 362.957031 195.191406 394.4375 142.878906 C 417.625 206.34375 356.695312 242.335938 305.597656 304.625 C 261.84375 358.050781 257.261719 437.082031 332.722656 472.015625 " fill-opacity="1" fill-rule="nonzero"/><path fill="#4c0071" d="M 334.242188 255.1875 C 321.785156 268.21875 308.9375 281.691406 296.339844 297.050781 C 268.175781 331.410156 256.363281 373.6875 264.699219 410.117188 C 268.40625 426.214844 275.753906 440.585938 286.484375 452.878906 C 249.410156 440.398438 220.648438 378.914062 229.835938 327.46875 C 223.570312 337.140625 218.367188 347.667969 214.800781 358.628906 C 201.464844 224.972656 362.316406 217.328125 386.679688 159.894531 C 392.203125 192.410156 370.464844 217.257812 334.242188 255.1875 " fill-opacity="1" fill-rule="nonzero"/><path fill="#4c0071" d="M 229.835938 327.472656 C 223.820312 337.34375 218.808594 347.832031 215.449219 358.839844 L 214.480469 362.019531 L 214.113281 358.695312 C 213.464844 352.863281 213.101562 346.988281 213.117188 341.105469 C 213.175781 335.21875 213.566406 329.332031 214.378906 323.488281 C 216.027344 311.804688 219.503906 300.328125 224.867188 289.761719 C 230.179688 279.171875 237.265625 269.523438 245.417969 260.976562 C 249.488281 256.695312 253.820312 252.675781 258.328125 248.875 C 262.859375 245.101562 267.578125 241.570312 272.40625 238.207031 C 291.761719 224.789062 312.710938 214.136719 333.335938 203.234375 C 343.625 197.726562 353.808594 192.011719 363.328125 185.316406 C 368.054688 181.941406 372.625 178.300781 376.664062 174.117188 C 378.703125 172.042969 380.535156 169.78125 382.273438 167.441406 C 383.957031 165.066406 385.433594 162.546875 386.679688 159.898438 C 385.566406 162.601562 384.203125 165.207031 382.625 167.683594 C 380.992188 170.121094 379.199219 172.460938 377.21875 174.636719 C 373.292969 179.015625 368.808594 182.859375 364.15625 186.445312 C 354.777344 193.539062 344.589844 199.425781 334.417969 205.203125 L 303.765625 222.214844 C 293.621094 227.964844 283.644531 233.996094 274.152344 240.703125 C 269.410156 244.054688 264.796875 247.582031 260.359375 251.304688 C 255.902344 255.003906 251.625 258.917969 247.609375 263.078125 C 239.574219 271.386719 232.601562 280.742188 227.347656 291.027344 C 222.109375 301.304688 218.476562 312.398438 216.582031 323.824219 C 215.660156 329.542969 215.144531 335.328125 214.960938 341.132812 C 214.808594 346.941406 215.082031 352.753906 215.480469 358.558594 L 214.144531 358.417969 C 217.960938 347.425781 223.289062 337.011719 229.835938 327.472656 " fill-opacity="1" fill-rule="nonzero"/><path fill="#990780" d="M 391.753906 451.0625 L 385.378906 457.4375 C 384.875 456.9375 384.402344 456.441406 383.898438 455.964844 L 338.675781 410.738281 L 310.605469 382.695312 L 338.675781 354.601562 L 366.714844 382.695312 L 377.417969 393.371094 L 391.753906 407.683594 C 403.71875 419.671875 403.71875 439.097656 391.753906 451.0625 " fill-opacity="1" fill-rule="nonzero"/><path fill="#7a018d" d="M 383.898438 455.960938 L 338.675781 410.738281 L 310.605469 382.695312 L 338.675781 354.601562 L 366.714844 382.695312 L 377.417969 393.367188 C 361.527344 409.761719 353.882812 425.207031 383.898438 455.960938 " fill-opacity="1" fill-rule="nonzero"/><path fill="#990780" d="M 391.753906 357.65625 L 358.308594 391.101562 C 347.792969 401.617188 347.449219 418.457031 357.335938 429.34375 C 357.625 429.6875 357.96875 430.027344 358.308594 430.371094 L 310.605469 382.695312 L 338.675781 354.601562 L 385.378906 307.898438 L 391.753906 314.277344 C 403.71875 326.242188 403.71875 345.664062 391.753906 357.65625 " fill-opacity="1" fill-rule="nonzero"/><path fill="#7a018d" d="M 391.753906 357.65625 L 358.308594 391.101562 C 347.792969 401.617188 347.449219 418.457031 357.335938 429.34375 C 305.046875 375.632812 393.257812 345.746094 385.378906 307.898438 L 391.753906 314.277344 C 403.71875 326.242188 403.71875 345.664062 391.753906 357.65625 " fill-opacity="1" fill-rule="nonzero"/><path fill="#990780" d="M 391.753906 357.65625 C 386.945312 363.394531 381.914062 368.914062 376.804688 374.351562 C 371.710938 379.804688 366.484375 385.125 361.230469 390.421875 L 359.261719 392.382812 C 358.675781 393.042969 358.046875 393.664062 357.492188 394.347656 C 356.976562 395.058594 356.40625 395.734375 355.933594 396.472656 C 355.492188 397.238281 354.976562 397.960938 354.585938 398.746094 C 352.894531 401.847656 351.898438 405.308594 351.5 408.847656 C 350.742188 415.941406 352.789062 423.382812 357.335938 429.34375 C 351.777344 424.277344 348.65625 416.453125 349.03125 408.671875 C 349.160156 404.773438 350.199219 400.90625 351.914062 397.375 C 352.3125 396.472656 352.882812 395.664062 353.363281 394.808594 C 353.882812 393.972656 354.507812 393.207031 355.078125 392.40625 C 355.6875 391.636719 356.375 390.925781 357.023438 390.1875 C 357.683594 389.488281 358.332031 388.851562 358.992188 388.179688 C 364.289062 382.929688 369.609375 377.703125 375.0625 372.609375 C 380.5 367.496094 386.015625 362.46875 391.753906 357.65625 " fill-opacity="1" fill-rule="nonzero"/><path fill="#990780" d="M 449.300781 314.277344 L 455.679688 307.902344 C 456.179688 308.398438 456.65625 308.902344 457.15625 309.375 L 502.382812 354.601562 L 530.449219 382.644531 L 502.382812 410.738281 L 474.339844 382.644531 L 463.640625 371.96875 L 449.300781 357.660156 C 437.335938 345.667969 437.335938 326.242188 449.300781 314.277344 " fill-opacity="1" fill-rule="nonzero"/><path fill="#7a018d" d="M 457.15625 309.375 L 502.382812 354.601562 L 530.449219 382.644531 L 502.382812 410.738281 L 474.339844 382.644531 L 463.640625 371.96875 C 479.53125 355.578125 487.175781 340.132812 457.15625 309.375 " fill-opacity="1" fill-rule="nonzero"/><path fill="#990780" d="M 449.300781 407.683594 L 482.746094 374.234375 C 493.265625 363.71875 493.605469 346.878906 483.722656 335.996094 C 483.429688 335.652344 483.089844 335.3125 482.746094 334.964844 L 530.449219 382.644531 L 502.382812 410.738281 L 455.679688 457.441406 L 449.300781 451.0625 C 437.335938 439.097656 437.335938 419.671875 449.300781 407.683594 " fill-opacity="1" fill-rule="nonzero"/><path fill="#7a018d" d="M 449.300781 407.683594 L 482.746094 374.234375 C 493.265625 363.71875 493.605469 346.878906 483.722656 335.996094 C 536.011719 389.707031 447.800781 419.59375 455.679688 457.441406 L 449.300781 451.0625 C 437.335938 439.097656 437.335938 419.671875 449.300781 407.683594 " fill-opacity="1" fill-rule="nonzero"/><path fill="#990780" d="M 449.300781 407.679688 C 454.113281 401.941406 459.144531 396.425781 464.253906 390.988281 C 469.347656 385.535156 474.574219 380.214844 479.824219 374.917969 L 481.792969 372.953125 C 482.378906 372.296875 483.007812 371.671875 483.5625 370.988281 C 484.078125 370.277344 484.652344 369.601562 485.125 368.863281 C 485.566406 368.101562 486.078125 367.378906 486.472656 366.589844 C 488.164062 363.488281 489.15625 360.027344 489.558594 356.488281 C 490.316406 349.394531 488.269531 341.957031 483.722656 335.992188 C 489.28125 341.058594 492.398438 348.882812 492.023438 356.664062 C 491.894531 360.5625 490.859375 364.429688 489.140625 367.960938 C 488.746094 368.863281 488.175781 369.671875 487.691406 370.53125 C 487.175781 371.367188 486.546875 372.128906 485.980469 372.929688 C 485.367188 373.703125 484.679688 374.410156 484.03125 375.148438 C 483.375 375.847656 482.722656 376.488281 482.066406 377.15625 C 476.769531 382.410156 471.449219 387.632812 465.996094 392.730469 C 460.558594 397.839844 455.039062 402.871094 449.300781 407.679688 " fill-opacity="1" fill-rule="nonzero"/></svg>