<svg xmlns="http://www.w3.org/2000/svg" xmlns:xlink="http://www.w3.org/1999/xlink" width="1080" zoomAndPan="magnify" viewBox="0 0 810 1439.999935" height="1920" preserveAspectRatio="xMidYMid meet" version="1.0"><defs><clipPath id="id1"><path d="M 0 381 L 810 381 L 810 1440 L 0 1440 Z M 0 381 " clip-rule="nonzero"/></clipPath><clipPath id="id2"><path d="M -139.714844 1454.726562 L 854.511719 274.085938 L 1234.289062 593.898438 L 240.066406 1774.539062 Z M -139.714844 1454.726562 " clip-rule="nonzero"/></clipPath><clipPath id="id3"><path d="M -139.714844 1454.726562 L 854.511719 274.085938 L 1234.289062 593.898438 L 240.066406 1774.539062 Z M -139.714844 1454.726562 " clip-rule="nonzero"/></clipPath><clipPath id="id4"><path d="M 811.519531 826.253906 C 762.90625 883.980469 602.242188 944.371094 513.21875 977.640625 C 493.957031 984.847656 477.480469 991.101562 465.535156 995.890625 C 396.308594 1024.054688 380.378906 1066.078125 359.863281 1119.417969 C 341.246094 1167.757812 320.140625 1222.582031 253.558594 1281.679688 C 204.632812 1325.289062 161.03125 1317.9375 119.042969 1310.628906 C 89.089844 1305.863281 60.914062 1300.945312 31.21875 1313.886719 C -46.957031 1348.371094 -44.996094 1402.824219 -43.183594 1455.496094 C -42.199219 1481.734375 -41.332031 1506.554688 -49.792969 1529.128906 L -51.628906 1528.570312 C -43.496094 1506.382812 -44.363281 1481.5625 -45.316406 1455.679688 C -46.996094 1402.457031 -48.855469 1347.105469 30.355469 1312.171875 C 60.375 1298.84375 89.097656 1303.890625 119.246094 1308.820312 C 160.847656 1315.804688 203.902344 1323.023438 252.175781 1280.1875 C 318.433594 1221.476562 339.378906 1166.84375 357.832031 1118.695312 C 377.59375 1067.03125 394.765625 1022.753906 464.671875 994.175781 C 476.425781 989.222656 493.097656 983.132812 512.355469 975.921875 C 607.433594 940.164062 784.058594 873.746094 818.117188 813.328125 C 825.421875 800.34375 833.25 787.132812 841.371094 773.183594 C 878.417969 710.003906 920.644531 638.320312 926.996094 570.078125 C 927.648438 563.039062 928.140625 556.191406 928.792969 549.152344 C 934.09375 489.597656 939.246094 428.269531 976.804688 383.667969 C 977.289062 383.089844 977.777344 382.511719 978.429688 381.738281 L 979.972656 383.039062 C 979.484375 383.617188 978.996094 384.195312 978.507812 384.777344 C 941.277344 428.988281 936.09375 489.964844 931.117188 549.132812 C 930.464844 556.171875 929.976562 563.019531 929.324219 570.058594 C 922.839844 638.847656 880.609375 710.53125 843.59375 774.066406 C 835.472656 788.015625 827.648438 801.226562 820.339844 814.210938 C 817.636719 818.207031 814.933594 822.199219 811.519531 826.253906 Z M 790.832031 846.121094 C 796.003906 839.585938 801.339844 832.859375 806.835938 825.941406 C 862.625 755.773438 925.671875 676.210938 938.460938 582.703125 C 940.578125 567.65625 941.894531 551.605469 943.269531 536.265625 C 948.054688 483.203125 952.847656 428.171875 985.851562 388.980469 C 986.015625 388.785156 986.175781 388.59375 986.339844 388.398438 L 984.796875 387.101562 C 984.632812 387.292969 984.472656 387.484375 984.308594 387.679688 C 950.816406 427.453125 946.023438 482.484375 941.269531 535.902344 C 939.894531 551.242188 938.386719 567.128906 936.460938 582.339844 C 923.800781 675.296875 860.757812 754.859375 805.292969 824.640625 C 799.796875 831.558594 794.460938 838.285156 789.289062 844.820312 C 788.3125 845.980469 787.5 846.945312 786.523438 848.101562 C 729.78125 915.484375 543.886719 999.175781 473.027344 1031.242188 L 472.15625 1031.496094 C 406.445312 1060.96875 384.277344 1103.347656 358.90625 1152.269531 C 336.148438 1196.132812 310.453125 1245.445312 248.167969 1298.261719 C 202.925781 1336.71875 161.574219 1330.605469 121.320312 1324.757812 C 91.753906 1320.316406 63.832031 1316.273438 35.042969 1329.316406 C -39.578125 1363.496094 -35.96875 1418.34375 -32.320312 1471.574219 C -30.523438 1496.847656 -29.007812 1520.894531 -36.003906 1541.730469 L -34.164062 1542.289062 C -27.035156 1520.902344 -28.714844 1497.050781 -30.351562 1471.582031 C -33.9375 1419.0625 -37.484375 1364.929688 36.289062 1331.359375 C 64.535156 1318.183594 92.292969 1322.421875 121.667969 1326.699219 C 162.113281 1332.707031 204.011719 1338.953125 249.90625 1299.722656 C 312.351562 1246.714844 338.179688 1196.855469 361.132812 1153.15625 C 386.339844 1104.425781 408.179688 1062.429688 473.371094 1033.179688 L 474.246094 1032.925781 C 545.105469 1000.863281 731.355469 917.140625 788.421875 849.371094 C 789.234375 848.40625 790.210938 847.25 790.832031 846.121094 Z M 948.117188 595.125 C 951.585938 574.949219 952.996094 553.695312 954.820312 533.121094 C 958.75 482.640625 962.71875 430.546875 993.417969 393.699219 L 991.875 392.402344 C 960.6875 429.824219 956.554688 482.113281 952.65625 532.949219 C 951.1875 553.492188 949.425781 574.777344 946.117188 594.757812 C 925.585938 715.078125 839.15625 799.699219 762.796875 874.320312 L 760.492188 876.667969 C 694.75 941.421875 548.050781 1035.351562 479.667969 1069.171875 C 418.152344 1099.539062 391.121094 1139.46875 359.953125 1185.492188 C 333.242188 1225.039062 302.855469 1269.738281 244.546875 1316.660156 C 202.136719 1350.574219 162.492188 1345.570312 123.949219 1340.828125 C 94.988281 1337.230469 67.644531 1333.675781 40.277344 1346.597656 C -30.816406 1380.113281 -25.058594 1437.101562 -19.84375 1487.691406 C -17.039062 1512.164062 -14.710938 1535.242188 -20.566406 1554.730469 L -18.730469 1555.289062 C -12.707031 1535.609375 -15.066406 1512.171875 -17.710938 1487.507812 C -23.074219 1435.140625 -28.59375 1380.996094 41.304688 1348.121094 C 67.992188 1335.613281 95.140625 1339.007812 123.90625 1342.441406 C 162.644531 1347.347656 203 1352.289062 245.898438 1317.796875 C 304.371094 1270.679688 334.917969 1225.789062 361.628906 1186.242188 C 392.632812 1140.414062 419.503906 1100.675781 480.5 1070.53125 C 548.882812 1036.710938 695.742188 942.589844 761.648438 877.644531 L 763.953125 875.296875 C 793.707031 846.230469 825.113281 815.59375 853.402344 781.996094 C 898.144531 729.257812 935.433594 668.921875 948.117188 595.125 Z M 957.773438 607.546875 C 962.390625 584.046875 963.792969 558.496094 965.285156 534.011719 C 968.246094 482.71875 971.097656 434.300781 1000.109375 398.675781 L 998.566406 397.375 C 985.265625 413.5625 976.269531 434.035156 970.988281 460.277344 C 966.175781 483.613281 964.773438 509.164062 963.476562 533.808594 C 961.984375 558.292969 960.554688 583.488281 955.933594 606.988281 C 929.050781 743.074219 834.679688 826.945312 732.019531 908.128906 C 704.828125 929.453125 675.027344 955.835938 643.539062 983.4375 C 588.0625 1032.085938 530.765625 1082.503906 487.476562 1106.105469 C 430.839844 1136.949219 398.71875 1173.917969 361.554688 1216.871094 C 330.929688 1252.457031 295.882812 1292.902344 241.027344 1334.152344 C 201.644531 1363.6875 163.707031 1359.789062 126.867188 1356.15625 C 98.550781 1353.757812 71.816406 1351.042969 45.839844 1363.488281 C -21.375 1396.3125 -13.453125 1453.472656 -6.460938 1503.910156 C -3.199219 1527.449219 -0.21875 1549.753906 -4.777344 1567.695312 L -2.9375 1568.253906 C 1.945312 1549.925781 -1.226562 1527.457031 -4.328125 1503.726562 C -11.097656 1453.808594 -18.957031 1397.359375 47.054688 1365.175781 C 72.515625 1352.953125 99.054688 1355.503906 127.242188 1358.453125 C 164.277344 1362.25 202.925781 1366.085938 242.628906 1336.164062 C 297.648438 1294.71875 332.695312 1254.273438 363.484375 1218.496094 C 400.484375 1175.734375 432.25 1138.796875 488.726562 1108.148438 C 532.015625 1084.542969 589.472656 1033.933594 645.113281 985.09375 C 676.601562 957.488281 706.402344 931.109375 733.59375 909.785156 C 783.753906 870.1875 832.078125 830.035156 871.421875 783.3125 C 912.335938 733.945312 943.882812 677.6875 957.773438 607.546875 Z M 967.265625 620.160156 C 973.0625 593.695312 974.191406 564.945312 975.21875 537.097656 C 977.175781 486.609375 978.824219 438.832031 1006.863281 404.363281 L 1005.320312 403.0625 C 976.988281 438.273438 975.171875 486.242188 973.246094 537.089844 C 972.222656 564.933594 971.257812 593.492188 965.265625 619.792969 C 929.941406 780.78125 811.28125 869.609375 703.058594 940.171875 C 657.765625 969.675781 621.832031 1012.34375 586.847656 1053.5 C 555.792969 1090.378906 526.332031 1124.96875 494.828125 1143.976562 C 443.878906 1174.328125 405.695312 1209.488281 365.171875 1246.644531 C 328.15625 1280.8125 289.808594 1316.167969 236.886719 1352.777344 C 200.890625 1377.902344 164.820312 1374.917969 130.042969 1372.359375 C 101.914062 1370.121094 75.4375 1368.28125 50.6875 1380.441406 C -12.839844 1412.414062 -2.558594 1469.90625 6.242188 1520.546875 C 10.316406 1543.117188 13.914062 1564.296875 10.304688 1580.726562 L 12.304688 1581.089844 C 16.078125 1564.46875 12.09375 1542.964844 8.179688 1520.199219 C -0.558594 1470.273438 -10.421875 1413.457031 51.742188 1382.320312 C 75.941406 1370.03125 102.261719 1372.0625 130.03125 1374.328125 C 165.359375 1377.019531 201.589844 1379.8125 238.105469 1354.460938 C 291.191406 1317.660156 329.539062 1282.304688 366.554688 1248.136719 C 406.71875 1211.011719 444.902344 1175.851562 495.855469 1145.5 C 527.714844 1126.460938 557.144531 1091.515625 588.390625 1054.800781 C 623.019531 1013.675781 659.144531 971.167969 703.921875 941.886719 C 764.484375 902.46875 828.308594 857.222656 879.035156 796.984375 C 919.359375 749.101562 951.527344 691.714844 967.265625 620.160156 Z M 976.757812 632.773438 C 983.765625 603.695312 984.296875 572.132812 984.722656 541.472656 C 985.449219 491.269531 986.421875 443.90625 1013.230469 409.722656 L 1011.6875 408.425781 C 984.390625 443.1875 983.613281 490.710938 982.558594 541.300781 C 981.9375 571.796875 981.410156 603.363281 974.566406 632.246094 C 955.054688 714.152344 916.6875 782.820312 857.304688 842.371094 C 800.878906 898.800781 732.910156 939.570312 674.066406 971.855469 C 619.5 1001.800781 592.058594 1051.621094 567.683594 1095.441406 C 548.597656 1129.855469 530.617188 1162.566406 502.117188 1181.132812 C 462.953125 1206.890625 426.394531 1233.855469 387.828125 1262.421875 C 340.339844 1297.671875 291.328125 1333.945312 232.878906 1370.851562 C 200.265625 1391.566406 166.09375 1389.851562 133.347656 1388.011719 C 105.476562 1386.648438 79.21875 1385.328125 55.730469 1397.558594 C -3.917969 1428.835938 8.933594 1489.15625 19.328125 1537.507812 C 23.832031 1558.789062 28.242188 1579.003906 25.738281 1593.722656 L 27.546875 1593.925781 C 30.019531 1578.851562 25.609375 1558.636719 21.074219 1537 C 10.527344 1486.867188 -1.855469 1429.914062 56.949219 1399.242188 C 79.917969 1387.238281 106.175781 1388.558594 133.691406 1389.953125 C 166.957031 1391.566406 201.320312 1393.445312 234.453125 1372.503906 C 292.902344 1335.597656 341.914062 1299.324219 389.402344 1264.078125 C 427.96875 1235.507812 464.332031 1208.382812 503.691406 1182.789062 C 532.355469 1164.027344 550.496094 1131.125 569.910156 1096.324219 C 594.121094 1052.695312 621.398438 1003.070312 675.640625 973.511719 C 734.648438 941.03125 802.808594 900.425781 859.394531 843.800781 C 869.140625 834.1875 878.144531 824.28125 886.597656 814.238281 C 930.4375 761.398438 960.257812 701.707031 976.757812 632.773438 Z M 986.414062 645.195312 C 994.5 614.054688 994.238281 579.515625 994.097656 546.398438 C 993.921875 496.089844 993.824219 448.820312 1020.113281 414.863281 L 1018.765625 413.726562 C 992.148438 448.070312 992.113281 495.886719 992.480469 546.355469 C 992.621094 579.476562 992.691406 613.851562 984.769531 644.796875 C 933.597656 844.578125 791.632812 935.234375 645.789062 1003.480469 C 583.796875 1032.453125 568.96875 1085.304688 555.921875 1131.734375 C 546.167969 1166.417969 537.136719 1199.074219 510.3125 1218.394531 C 430.6875 1275.746094 327.863281 1334.023438 229.742188 1388.671875 C 200.515625 1404.976562 168.761719 1404.304688 138.074219 1403.542969 C 110.070312 1402.730469 83.710938 1402.3125 61.289062 1414.449219 C 5.007812 1445.261719 20.566406 1505.882812 33.15625 1554.761719 C 38.503906 1575.433594 43.085938 1593.484375 41.691406 1606.5 L 43.5 1606.699219 C 44.867188 1593.332031 40.28125 1575.28125 34.902344 1554.253906 C 22.730469 1506.054688 7.230469 1446.144531 62.316406 1415.972656 C 84.382812 1403.867188 110.417969 1404.671875 138.226562 1405.320312 C 169.269531 1406.050781 201.214844 1406.882812 230.960938 1390.355469 C 329.246094 1335.515625 431.90625 1277.433594 511.695312 1219.886719 C 539.035156 1200.34375 548.199219 1167.140625 558.113281 1132.261719 C 571 1086.023438 585.695312 1033.722656 647.007812 1005.164062 C 736.886719 963.046875 825.160156 912.648438 891.984375 833.296875 C 933.058594 783.738281 966.703125 722.640625 986.414062 645.195312 Z M 995.746094 658 C 1004.90625 624.800781 1003.914062 587.992188 1003.175781 552.0625 C 1002.097656 501.65625 1001.066406 453.929688 1026.675781 420.386719 L 1025.324219 419.25 C 999.226562 453.371094 1000.289062 501.453125 1001.398438 552.214844 C 1002.105469 587.792969 1003.101562 624.597656 994.097656 657.605469 C 933.59375 880.214844 776.964844 971.058594 616.664062 1035.710938 C 547.929688 1063.296875 546.53125 1118.214844 545.292969 1166.675781 C 544.386719 1202.210938 543.492188 1235.773438 517.664062 1256.261719 C 461.984375 1300.453125 370.59375 1341.628906 289.890625 1377.941406 C 267.125 1388.140625 245.75 1397.859375 225.957031 1407.261719 C 200.660156 1419.289062 171.652344 1419.277344 143.546875 1419.367188 C 114.699219 1419.164062 87.6875 1419.519531 66.171875 1431.757812 C 13.441406 1462.261719 32.699219 1526.328125 46.722656 1573.113281 C 52.464844 1592.140625 57.445312 1608.546875 56.964844 1619.6875 L 58.933594 1619.699219 C 59.386719 1608.199219 54.566406 1591.601562 48.632812 1572.414062 C 34.070312 1523.523438 15.828125 1462.953125 67.195312 1433.28125 C 88.359375 1421.074219 115.042969 1421.105469 143.503906 1420.984375 C 171.609375 1420.894531 200.976562 1420.875 226.789062 1408.621094 C 246.582031 1399.21875 268.148438 1389.664062 290.722656 1379.304688 C 371.589844 1342.796875 463.144531 1301.429688 518.824219 1257.238281 C 545.332031 1236.332031 546.164062 1202.058594 547.042969 1166.164062 C 548.316406 1116.09375 549.796875 1064.210938 617.304688 1036.910156 C 719.261719 995.722656 819.949219 943.898438 895.230469 854.507812 C 938.671875 803.3125 973.523438 739.605469 995.746094 658 Z M 1005.398438 670.421875 C 1015.476562 635.351562 1013.917969 596.085938 1012.285156 558.082031 C 1010.269531 507.21875 1008.335938 459.390625 1033.589844 425.878906 L 1032.238281 424.742188 C 1006.5 458.835938 1008.65625 507.179688 1010.507812 558.238281 C 1011.945312 596.078125 1013.671875 635.148438 1003.753906 670.027344 C 972.300781 779.824219 919.269531 865.511719 841.171875 932.402344 C 777.914062 986.378906 699.828125 1028.199219 588.191406 1067.175781 C 513.261719 1093.5 524.496094 1147.511719 535.390625 1199.582031 C 543.199219 1236.515625 550.46875 1271.347656 525.3125 1293.390625 C 474.996094 1337.476562 367.148438 1374.695312 280.699219 1404.519531 C 259.304688 1411.914062 239.300781 1418.828125 222.113281 1425.144531 C 200.941406 1433.054688 175.382812 1433.640625 150.730469 1434.332031 C 120.554688 1435.316406 92.316406 1435.957031 71.214844 1448.875 C 21.683594 1479.105469 44.457031 1544.476562 60.894531 1592.308594 C 66.808594 1609.171875 71.804688 1623.605469 72.238281 1632.878906 L 74.015625 1632.726562 C 73.550781 1623.097656 68.363281 1608.5 62.613281 1591.445312 C 46.234375 1544.324219 24.070312 1479.792969 72.046875 1450.234375 C 92.464844 1437.734375 120.867188 1436.902344 150.527344 1436.140625 C 175.179688 1435.449219 200.898438 1434.667969 222.425781 1426.726562 C 239.617188 1420.414062 259.617188 1413.5 281.011719 1406.105469 C 367.820312 1376.25 475.664062 1339.03125 526.304688 1294.558594 C 551.953125 1271.9375 544.621094 1236.394531 536.945312 1198.910156 C 526.113281 1147.550781 515.128906 1094.414062 588.507812 1068.757812 C 700.46875 1029.394531 778.746094 987.738281 842.167969 933.570312 C 863.039062 915.835938 882.171875 896.640625 899.570312 875.980469 C 947.53125 819.023438 982.375 751.019531 1005.398438 670.421875 Z M 1015.054688 682.84375 C 1026.046875 645.902344 1023.757812 604.375 1021.394531 564.105469 C 1018.28125 512.976562 1015.578125 464.5 1040.476562 431.019531 L 1039.125 429.878906 C 1013.933594 464.105469 1016.832031 512.742188 1019.617188 564.257812 C 1021.949219 604.171875 1024.433594 645.863281 1013.410156 682.449219 C 977.898438 801.367188 919.664062 893.234375 835.324219 962.453125 C 766.71875 1018.859375 679.09375 1062.214844 559.394531 1099.023438 C 532.34375 1107.257812 515.640625 1119.261719 507.925781 1135.863281 C 495.207031 1163.105469 510.199219 1198.167969 524.90625 1232.003906 C 541.460938 1270.691406 557.28125 1307.117188 532.988281 1330.875 C 483.585938 1379.359375 334.976562 1415.25 246.019531 1436.695312 C 236.023438 1439.167969 226.546875 1441.414062 218.488281 1443.542969 C 202.183594 1447.632812 182.570312 1448.601562 161.695312 1449.503906 C 130.125 1450.96875 97.488281 1452.523438 76.449219 1466.152344 C 29.632812 1496.6875 57.804688 1566.609375 76.253906 1612.835938 C 81.734375 1626.691406 86.515625 1638.636719 87.863281 1646.039062 L 89.804688 1645.695312 C 88.621094 1638.097656 83.644531 1625.988281 78.164062 1612.132812 C 59.9375 1566.425781 32.375 1497.34375 77.636719 1467.484375 C 98.160156 1454.078125 130.796875 1452.519531 162.011719 1451.089844 C 182.886719 1450.1875 202.5 1449.214844 218.964844 1444.933594 C 227.214844 1442.96875 236.5 1440.558594 246.496094 1438.085938 C 335.453125 1416.640625 484.578125 1380.527344 534.144531 1331.851562 C 535.3125 1330.855469 536.289062 1329.695312 537.265625 1328.535156 C 557.914062 1304.015625 542.699219 1268.433594 526.429688 1230.976562 C 512.109375 1197.464844 497.148438 1162.757812 509.570312 1136.261719 C 516.992188 1120.398438 533.53125 1108.589844 559.871094 1100.414062 C 679.925781 1063.578125 767.714844 1020.027344 836.480469 963.429688 C 860.917969 943.417969 883.035156 921.457031 903.199219 897.515625 C 952.816406 838.984375 989.714844 767.757812 1015.054688 682.84375 Z M 514.820312 1262.777344 C 492.910156 1228.488281 470.167969 1192.839844 480.457031 1166.523438 C 486.488281 1151.140625 502.734375 1140.074219 530.558594 1132.484375 C 660.261719 1097.503906 755.515625 1053.3125 830.304688 993.867188 C 920.832031 921.605469 984.492188 824.082031 1024.355469 695.292969 C 1036.457031 656.644531 1033.078125 612.882812 1029.824219 570.542969 C 1025.941406 518.765625 1022.136719 470.023438 1046.648438 436.21875 L 1045.136719 435.273438 C 1020.300781 469.464844 1023.96875 518.753906 1028.046875 570.695312 C 1031.300781 613.035156 1034.484375 656.636719 1022.710938 694.898438 C 982.980469 823.136719 919.675781 920.632812 829.117188 992.535156 C 754.679688 1051.949219 659.589844 1095.949219 530.050781 1130.738281 C 501.515625 1138.386719 484.941406 1149.839844 478.78125 1165.773438 C 468.199219 1192.828125 491.164062 1228.996094 513.292969 1263.804688 C 538.726562 1303.699219 562.714844 1341.390625 541.089844 1367.066406 C 540.765625 1367.453125 540.441406 1367.839844 540.117188 1368.226562 C 519.832031 1390.746094 466.730469 1412.6875 386.703125 1431.75 C 325.277344 1446.351562 256.015625 1457.324219 214.289062 1461.453125 C 205.238281 1462.410156 194.347656 1462.8125 182.75 1463.273438 C 147.785156 1464.847656 103.902344 1466.835938 81.105469 1482.945312 C 37.0625 1514.492188 73.488281 1593.015625 93.058594 1635.566406 C 97.878906 1645.894531 101.617188 1653.992188 103.136719 1659.230469 L 104.882812 1658.722656 C 103.167969 1653.320312 99.433594 1645.222656 94.613281 1634.894531 C 75.296875 1593.21875 39.285156 1515.375 82.515625 1484.792969 C 104.796875 1468.90625 148.324219 1466.949219 183.125 1465.566406 C 194.722656 1465.105469 205.613281 1464.707031 214.828125 1463.554688 C 284.0625 1456.523438 492.578125 1423.890625 541.6875 1369.882812 C 542.015625 1369.496094 542.339844 1369.109375 542.664062 1368.722656 C 565.070312 1341.722656 539.609375 1301.472656 514.820312 1262.777344 Z M 549.304688 1406.652344 C 572.433594 1377.621094 536.90625 1334.835938 502.597656 1293.734375 C 473.265625 1258.472656 442.9375 1222.042969 451.640625 1196.042969 C 456.664062 1181.464844 472.96875 1171.109375 501.921875 1164.140625 C 641.273438 1131.015625 743.832031 1086.371094 824.453125 1023.917969 C 921.199219 948.976562 989.738281 845.65625 1034.011719 707.714844 C 1046.863281 667.390625 1042.757812 621.363281 1038.605469 576.949219 C 1033.789062 524.714844 1029.214844 475.324219 1053.371094 441.546875 L 1052.214844 440.574219 C 1027.570312 474.929688 1032.175781 524.675781 1037.023438 577.265625 C 1040.980469 621.515625 1045.25 667.351562 1032.367188 707.320312 C 988.226562 844.710938 919.847656 947.835938 823.457031 1022.75 C 743 1085.011719 640.605469 1129.460938 501.609375 1162.554688 C 471.945312 1169.582031 455.152344 1180.519531 449.996094 1195.648438 C 441.027344 1222.746094 470.167969 1257.84375 501.269531 1294.921875 C 534.996094 1335.535156 569.914062 1377.480469 547.953125 1405.515625 C 524.367188 1435.484375 438.265625 1454.710938 389.242188 1463.585938 C 314.121094 1477.214844 241.28125 1481.875 210.992188 1479.464844 C 181.960938 1477.128906 113.558594 1479.253906 86.503906 1500.027344 C 42.832031 1533.871094 94.363281 1627.753906 113.648438 1662.804688 C 115.761719 1666.5625 117.648438 1669.800781 118.734375 1672.035156 L 120.453125 1671.171875 C 119.171875 1668.777344 117.476562 1665.699219 115.367188 1661.941406 C 96.273438 1627.050781 45.382812 1534.371094 87.722656 1501.714844 C 111.894531 1482.800781 174.199219 1478.511719 210.816406 1481.628906 C 274.820312 1486.6875 504.785156 1459.910156 548.523438 1407.976562 C 548.65625 1407.425781 548.980469 1407.039062 549.304688 1406.652344 Z M 549.304688 1406.652344 " clip-rule="nonzero"/></clipPath><linearGradient x1="40.61635" gradientTransform="matrix(1.625878, -1.930727, 1.929388, 1.624751, -168.561774, 1432.082311)" y1="117.318001" x2="568.01817" gradientUnits="userSpaceOnUse" y2="117.318001" id="id5"><stop stop-opacity="1" stop-color="rgb(58.508301%, 2.418518%, 50.822449%)" offset="0"/><stop stop-opacity="1" stop-color="rgb(58.355713%, 2.389526%, 50.886536%)" offset="0.015625"/><stop stop-opacity="1" stop-color="rgb(58.049011%, 2.331543%, 51.014709%)" offset="0.03125"/><stop stop-opacity="1" stop-color="rgb(57.743835%, 2.27356%, 51.141357%)" offset="0.046875"/><stop stop-opacity="1" stop-color="rgb(57.437134%, 2.215576%, 51.269531%)" offset="0.0625"/><stop stop-opacity="1" stop-color="rgb(57.130432%, 2.159119%, 51.397705%)" offset="0.078125"/><stop stop-opacity="1" stop-color="rgb(56.825256%, 2.101135%, 51.525879%)" offset="0.09375"/><stop stop-opacity="1" stop-color="rgb(56.518555%, 2.043152%, 51.654053%)" offset="0.109375"/><stop stop-opacity="1" stop-color="rgb(56.211853%, 1.985168%, 51.782227%)" offset="0.125"/><stop stop-opacity="1" stop-color="rgb(55.906677%, 1.927185%, 51.9104%)" offset="0.140625"/><stop stop-opacity="1" stop-color="rgb(55.599976%, 1.869202%, 52.038574%)" offset="0.15625"/><stop stop-opacity="1" stop-color="rgb(55.2948%, 1.812744%, 52.165222%)" offset="0.171875"/><stop stop-opacity="1" stop-color="rgb(54.988098%, 1.754761%, 52.293396%)" offset="0.1875"/><stop stop-opacity="1" stop-color="rgb(54.681396%, 1.696777%, 52.42157%)" offset="0.203125"/><stop stop-opacity="1" stop-color="rgb(54.376221%, 1.638794%, 52.549744%)" offset="0.21875"/><stop stop-opacity="1" stop-color="rgb(54.069519%, 1.580811%, 52.677917%)" offset="0.234375"/><stop stop-opacity="1" stop-color="rgb(53.762817%, 1.524353%, 52.806091%)" offset="0.25"/><stop stop-opacity="1" stop-color="rgb(53.457642%, 1.46637%, 52.934265%)" offset="0.265625"/><stop stop-opacity="1" stop-color="rgb(53.15094%, 1.408386%, 53.060913%)" offset="0.28125"/><stop stop-opacity="1" stop-color="rgb(52.845764%, 1.350403%, 53.189087%)" offset="0.296875"/><stop stop-opacity="1" stop-color="rgb(52.539062%, 1.292419%, 53.317261%)" offset="0.3125"/><stop stop-opacity="1" stop-color="rgb(52.232361%, 1.234436%, 53.445435%)" offset="0.328125"/><stop stop-opacity="1" stop-color="rgb(51.927185%, 1.177979%, 53.573608%)" offset="0.34375"/><stop stop-opacity="1" stop-color="rgb(51.620483%, 1.119995%, 53.701782%)" offset="0.359375"/><stop stop-opacity="1" stop-color="rgb(51.315308%, 1.062012%, 53.829956%)" offset="0.375"/><stop stop-opacity="1" stop-color="rgb(51.008606%, 1.004028%, 53.95813%)" offset="0.390625"/><stop stop-opacity="1" stop-color="rgb(50.701904%, 0.946045%, 54.084778%)" offset="0.40625"/><stop stop-opacity="1" stop-color="rgb(50.396729%, 0.888062%, 54.212952%)" offset="0.421875"/><stop stop-opacity="1" stop-color="rgb(50.090027%, 0.831604%, 54.341125%)" offset="0.4375"/><stop stop-opacity="1" stop-color="rgb(49.783325%, 0.773621%, 54.469299%)" offset="0.453125"/><stop stop-opacity="1" stop-color="rgb(49.478149%, 0.715637%, 54.597473%)" offset="0.46875"/><stop stop-opacity="1" stop-color="rgb(49.171448%, 0.657654%, 54.725647%)" offset="0.484375"/><stop stop-opacity="1" stop-color="rgb(48.866272%, 0.59967%, 54.853821%)" offset="0.5"/><stop stop-opacity="1" stop-color="rgb(48.55957%, 0.543213%, 54.980469%)" offset="0.515625"/><stop stop-opacity="1" stop-color="rgb(48.252869%, 0.485229%, 55.108643%)" offset="0.53125"/><stop stop-opacity="1" stop-color="rgb(47.944641%, 0.427246%, 55.233765%)" offset="0.546875"/><stop stop-opacity="1" stop-color="rgb(47.657776%, 0.396729%, 55.213928%)" offset="0.554687"/><stop stop-opacity="1" stop-color="rgb(47.393799%, 0.390625%, 55.052185%)" offset="0.5625"/><stop stop-opacity="1" stop-color="rgb(47.129822%, 0.384521%, 54.890442%)" offset="0.570312"/><stop stop-opacity="1" stop-color="rgb(46.865845%, 0.378418%, 54.728699%)" offset="0.578125"/><stop stop-opacity="1" stop-color="rgb(46.601868%, 0.372314%, 54.568481%)" offset="0.585937"/><stop stop-opacity="1" stop-color="rgb(46.337891%, 0.366211%, 54.406738%)" offset="0.59375"/><stop stop-opacity="1" stop-color="rgb(46.073914%, 0.360107%, 54.244995%)" offset="0.601562"/><stop stop-opacity="1" stop-color="rgb(45.809937%, 0.35553%, 54.083252%)" offset="0.609375"/><stop stop-opacity="1" stop-color="rgb(45.545959%, 0.349426%, 53.923035%)" offset="0.617188"/><stop stop-opacity="1" stop-color="rgb(45.281982%, 0.343323%, 53.761292%)" offset="0.625"/><stop stop-opacity="1" stop-color="rgb(45.018005%, 0.337219%, 53.599548%)" offset="0.632812"/><stop stop-opacity="1" stop-color="rgb(44.754028%, 0.331116%, 53.437805%)" offset="0.640625"/><stop stop-opacity="1" stop-color="rgb(44.490051%, 0.325012%, 53.277588%)" offset="0.648438"/><stop stop-opacity="1" stop-color="rgb(44.226074%, 0.320435%, 53.115845%)" offset="0.65625"/><stop stop-opacity="1" stop-color="rgb(43.962097%, 0.314331%, 52.954102%)" offset="0.664063"/><stop stop-opacity="1" stop-color="rgb(43.69812%, 0.308228%, 52.792358%)" offset="0.671875"/><stop stop-opacity="1" stop-color="rgb(43.434143%, 0.302124%, 52.632141%)" offset="0.679688"/><stop stop-opacity="1" stop-color="rgb(43.170166%, 0.296021%, 52.470398%)" offset="0.6875"/><stop stop-opacity="1" stop-color="rgb(42.906189%, 0.289917%, 52.308655%)" offset="0.695313"/><stop stop-opacity="1" stop-color="rgb(42.642212%, 0.283813%, 52.146912%)" offset="0.703125"/><stop stop-opacity="1" stop-color="rgb(42.378235%, 0.279236%, 51.986694%)" offset="0.710937"/><stop stop-opacity="1" stop-color="rgb(42.114258%, 0.273132%, 51.824951%)" offset="0.71875"/><stop stop-opacity="1" stop-color="rgb(41.850281%, 0.267029%, 51.663208%)" offset="0.726562"/><stop stop-opacity="1" stop-color="rgb(41.584778%, 0.260925%, 51.501465%)" offset="0.734375"/><stop stop-opacity="1" stop-color="rgb(41.320801%, 0.254822%, 51.341248%)" offset="0.742188"/><stop stop-opacity="1" stop-color="rgb(41.056824%, 0.248718%, 51.179504%)" offset="0.75"/><stop stop-opacity="1" stop-color="rgb(40.792847%, 0.244141%, 51.017761%)" offset="0.757812"/><stop stop-opacity="1" stop-color="rgb(40.52887%, 0.238037%, 50.857544%)" offset="0.765625"/><stop stop-opacity="1" stop-color="rgb(40.264893%, 0.231934%, 50.695801%)" offset="0.773438"/><stop stop-opacity="1" stop-color="rgb(40.000916%, 0.22583%, 50.534058%)" offset="0.78125"/><stop stop-opacity="1" stop-color="rgb(39.736938%, 0.219727%, 50.372314%)" offset="0.789063"/><stop stop-opacity="1" stop-color="rgb(39.472961%, 0.213623%, 50.212097%)" offset="0.796875"/><stop stop-opacity="1" stop-color="rgb(39.208984%, 0.20752%, 50.050354%)" offset="0.804688"/><stop stop-opacity="1" stop-color="rgb(38.945007%, 0.202942%, 49.888611%)" offset="0.8125"/><stop stop-opacity="1" stop-color="rgb(38.68103%, 0.196838%, 49.726868%)" offset="0.820313"/><stop stop-opacity="1" stop-color="rgb(38.417053%, 0.190735%, 49.56665%)" offset="0.828125"/><stop stop-opacity="1" stop-color="rgb(38.153076%, 0.184631%, 49.404907%)" offset="0.835938"/><stop stop-opacity="1" stop-color="rgb(37.889099%, 0.178528%, 49.243164%)" offset="0.84375"/><stop stop-opacity="1" stop-color="rgb(37.625122%, 0.172424%, 49.081421%)" offset="0.851562"/><stop stop-opacity="1" stop-color="rgb(37.361145%, 0.167847%, 48.921204%)" offset="0.859375"/><stop stop-opacity="1" stop-color="rgb(37.097168%, 0.161743%, 48.75946%)" offset="0.867187"/><stop stop-opacity="1" stop-color="rgb(36.833191%, 0.15564%, 48.597717%)" offset="0.875"/><stop stop-opacity="1" stop-color="rgb(36.569214%, 0.149536%, 48.435974%)" offset="0.882812"/><stop stop-opacity="1" stop-color="rgb(36.305237%, 0.143433%, 48.275757%)" offset="0.890625"/><stop stop-opacity="1" stop-color="rgb(36.04126%, 0.137329%, 48.114014%)" offset="0.898437"/><stop stop-opacity="1" stop-color="rgb(35.777283%, 0.131226%, 47.952271%)" offset="0.90625"/><stop stop-opacity="1" stop-color="rgb(35.513306%, 0.126648%, 47.790527%)" offset="0.914062"/><stop stop-opacity="1" stop-color="rgb(35.247803%, 0.120544%, 47.63031%)" offset="0.921875"/><stop stop-opacity="1" stop-color="rgb(34.983826%, 0.114441%, 47.468567%)" offset="0.929688"/><stop stop-opacity="1" stop-color="rgb(34.719849%, 0.108337%, 47.306824%)" offset="0.9375"/><stop stop-opacity="1" stop-color="rgb(34.455872%, 0.102234%, 47.145081%)" offset="0.945312"/><stop stop-opacity="1" stop-color="rgb(34.191895%, 0.0961304%, 46.984863%)" offset="0.953125"/><stop stop-opacity="1" stop-color="rgb(33.927917%, 0.0915527%, 46.82312%)" offset="0.960938"/><stop stop-opacity="1" stop-color="rgb(33.66394%, 0.0854492%, 46.661377%)" offset="0.96875"/><stop stop-opacity="1" stop-color="rgb(33.399963%, 0.0793457%, 46.499634%)" offset="0.976563"/><stop stop-opacity="1" stop-color="rgb(33.135986%, 0.0732422%, 46.339417%)" offset="0.984375"/><stop stop-opacity="1" stop-color="rgb(32.872009%, 0.0671387%, 46.177673%)" offset="0.992188"/><stop stop-opacity="1" stop-color="rgb(32.608032%, 0.0610352%, 46.01593%)" offset="1"/></linearGradient></defs><rect x="-81" width="972" fill="#ffffff" y="-143.999994" height="1727.999922" fill-opacity="1"/><rect x="-81" width="972" fill="#000000" y="-143.999994" height="1727.999922" fill-opacity="1"/><rect x="-81" width="972" fill="#ffffff" y="-143.999994" height="1727.999922" fill-opacity="1"/><rect x="-81" width="972" fill="#000000" y="-143.999994" height="1727.999922" fill-opacity="1"/><g clip-path="url(#id1)"><g clip-path="url(#id2)"><g clip-path="url(#id3)"><g clip-path="url(#id4)"><path fill="url(#id5)" d="M -521.414062 1000.914062 L 473.921875 1839.09375 L 1331.414062 820.824219 L 336.078125 -17.355469 Z M -521.414062 1000.914062 " fill-rule="nonzero"/></g></g></g></g><path fill="#990780" d="M 520.679688 472.015625 C 596.140625 437.082031 591.558594 358.050781 547.804688 304.625 C 519.136719 269.648438 487.359375 242.980469 469.097656 215.070312 C 469.074219 215.027344 469.050781 215 469.003906 214.957031 C 454.796875 193.195312 448.808594 170.675781 458.964844 142.878906 C 466.585938 124.25 490.558594 100.300781 514.253906 96.222656 C 520.125 151.03125 576.335938 198.375 610.878906 242.3125 C 675.585938 324.570312 657.808594 444.753906 520.679688 472.015625 " fill-opacity="1" fill-rule="nonzero"/><path fill="#4c0071" d="M 514.253906 96.226562 C 514.929688 101.214844 515.925781 106.152344 517.304688 110.984375 C 518.734375 115.800781 520.367188 120.550781 522.382812 125.152344 C 526.375 134.363281 531.34375 143.121094 536.929688 151.453125 C 548.011719 168.203125 561.203125 183.441406 574.589844 198.441406 C 581.300781 205.929688 588.09375 213.363281 594.746094 220.941406 C 601.378906 228.535156 608.015625 236.136719 614.109375 244.238281 C 620.316406 252.265625 625.738281 260.898438 630.425781 269.902344 C 635.105469 278.90625 639.136719 288.289062 642.03125 298.042969 C 647.828125 317.496094 650.09375 338.207031 647.148438 358.398438 C 644.3125 378.519531 636.6875 398.15625 624.238281 414.289062 C 618.085938 422.375 611.0625 429.800781 603.203125 436.222656 C 595.304688 442.574219 586.859375 448.238281 577.902344 452.945312 C 568.871094 457.488281 559.605469 461.59375 549.960938 464.582031 C 545.207031 466.289062 540.296875 467.464844 535.4375 468.804688 C 533.023438 469.511719 530.53125 469.929688 528.070312 470.472656 L 520.679688 472.019531 C 540.3125 467.644531 559.585938 461.257812 577.164062 451.578125 C 585.957031 446.765625 594.226562 441.0625 601.917969 434.683594 C 609.570312 428.246094 616.363281 420.847656 622.277344 412.835938 C 634.160156 396.8125 641.652344 377.71875 644.292969 358.003906 C 647.078125 338.257812 644.757812 318 639 298.964844 C 636.210938 289.390625 632.292969 280.164062 627.742188 271.292969 C 623.179688 262.425781 617.886719 253.910156 611.8125 245.976562 C 599.742188 229.996094 585.902344 215.3125 572.765625 200.046875 C 559.582031 184.824219 546.523438 169.339844 535.632812 152.292969 C 530.207031 143.777344 525.40625 134.832031 521.609375 125.472656 C 519.695312 120.796875 518.15625 115.976562 516.84375 111.109375 C 515.613281 106.214844 514.773438 101.234375 514.253906 96.226562 " fill-opacity="1" fill-rule="nonzero"/><path fill="#4c0071" d="M 515.039062 217.304688 C 496.40625 204.570312 486.480469 186.722656 486.480469 186.722656 C 484.363281 198.558594 484.570312 209.199219 485.398438 217.191406 C 467.554688 193.792969 460.667969 173.414062 470.15625 147.210938 C 475.429688 134.472656 489.890625 119.136719 504.902344 111.859375 C 513.863281 147.667969 540.527344 179.863281 566.226562 208.921875 C 530.257812 201.851562 510.683594 181.128906 510.683594 181.128906 C 509.949219 197.179688 515.039062 217.304688 515.039062 217.304688 " fill-opacity="1" fill-rule="nonzero"/><path fill="#7a018d" d="M 615.921875 384.121094 C 605.328125 420.574219 582.417969 452.882812 520.679688 472.015625 C 596.140625 437.082031 591.558594 358.054688 547.804688 304.628906 C 519.136719 269.648438 487.359375 242.984375 469.097656 215.070312 C 506.285156 268.265625 525.375 260.070312 585.339844 321.785156 L 587.6875 306.402344 C 615.324219 346.859375 601.230469 395.289062 601.230469 395.289062 Z M 615.921875 384.121094 " fill-opacity="1" fill-rule="nonzero"/><path fill="#4c0071" d="M 515.039062 217.304688 C 496.40625 204.570312 486.480469 186.722656 486.480469 186.722656 C 484.363281 198.558594 484.570312 209.199219 485.398438 217.191406 C 467.554688 193.792969 460.667969 173.414062 470.15625 147.210938 C 475.429688 134.472656 489.890625 119.136719 504.902344 111.859375 C 487.453125 132.769531 486.863281 154.230469 492.15625 168.925781 C 492.15625 168.925781 495.09375 157.167969 506.265625 150.113281 C 506.265625 150.113281 524.523438 192.828125 566.226562 208.921875 C 530.257812 201.851562 510.683594 181.128906 510.683594 181.128906 C 509.949219 197.179688 515.039062 217.304688 515.039062 217.304688 " fill-opacity="1" fill-rule="nonzero"/><path fill="#ff4700" d="M 287.835938 173.464844 C 280.472656 177.84375 272.269531 183.707031 263.433594 191.277344 C 258.695312 181.222656 254.746094 168.925781 251.859375 155.894531 C 267.441406 135.742188 281.09375 127.648438 281.09375 127.648438 C 281.273438 137.664062 282.914062 155.515625 287.835938 173.464844 " fill-opacity="1" fill-rule="nonzero"/><path fill="#7a018d" d="M 287.835938 173.464844 C 280.472656 177.84375 272.269531 183.707031 263.433594 191.277344 C 258.695312 181.222656 254.746094 168.925781 251.859375 155.894531 C 267.441406 135.742188 281.09375 127.648438 281.09375 127.648438 C 281.273438 137.664062 282.914062 155.515625 287.835938 173.464844 " fill-opacity="1" fill-rule="nonzero"/><path fill="#4c0071" d="M 280.351562 175.636719 C 276.351562 163.738281 274.566406 151.777344 274.0625 145.035156 C 274.0625 145.035156 265.179688 151.007812 255.453125 165.175781 L 261.605469 187.917969 L 280.828125 180.328125 " fill-opacity="1" fill-rule="nonzero"/><path fill="#990780" d="M 344.722656 472.015625 C 342.8125 472.015625 340.902344 471.992188 339.035156 471.945312 C 164.988281 468.011719 141.734375 292.054688 202.503906 215.070312 C 218.4375 194.898438 208.191406 148.152344 257.378906 113.402344 C 256.550781 122.753906 256.457031 132.632812 257.058594 142.1875 C 257.746094 153.796875 259.449219 164.941406 262.144531 174.265625 C 270.804688 168.96875 278.703125 165.03125 285.632812 162.292969 C 297.355469 157.570312 306.425781 156.121094 312.207031 156.488281 C 319.1875 156.972656 326.53125 163.605469 338.089844 166.414062 C 362.433594 162.292969 381.890625 155.246094 406.4375 142.878906 C 429.625 206.34375 368.695312 242.335938 317.597656 304.625 C 273.84375 358.050781 269.261719 437.082031 344.722656 472.015625 " fill-opacity="1" fill-rule="nonzero"/><path fill="#4c0071" d="M 339.035156 471.945312 L 324.015625 471.367188 C 319.023438 470.945312 314.046875 470.3125 309.054688 469.789062 C 304.101562 469.03125 299.175781 468.039062 294.226562 467.175781 C 289.359375 465.949219 284.472656 464.75 279.636719 463.378906 C 260.429688 457.425781 242.214844 448.019531 226.46875 435.355469 C 218.792969 428.824219 211.378906 421.855469 205.238281 413.804688 C 201.925781 409.972656 199.261719 405.664062 196.347656 401.535156 C 194.976562 399.414062 193.765625 397.191406 192.46875 395.019531 L 190.554688 391.75 C 189.941406 390.644531 189.421875 389.492188 188.847656 388.367188 L 185.492188 381.566406 L 182.609375 374.554688 C 182.140625 373.386719 181.628906 372.226562 181.195312 371.042969 L 179.992188 367.449219 C 179.214844 365.046875 178.335938 362.671875 177.640625 360.246094 C 176.375 355.355469 174.929688 350.507812 174.078125 345.519531 L 173.339844 341.804688 L 172.976562 339.945312 L 172.71875 338.070312 L 171.699219 330.5625 C 169.632812 310.472656 170.6875 290.023438 175.390625 270.367188 C 177.734375 260.554688 180.796875 250.871094 185.058594 241.695312 C 189.273438 232.527344 194.207031 223.605469 200.546875 215.691406 C 206.875 208.128906 209.140625 198.1875 211.59375 188.550781 C 213.96875 178.84375 216.351562 169.019531 220.085938 159.644531 C 223.804688 150.273438 228.851562 141.417969 235.175781 133.589844 C 238.355469 129.691406 241.851562 126.066406 245.554688 122.679688 C 249.265625 119.296875 253.289062 116.289062 257.378906 113.402344 C 249.324219 119.351562 241.960938 126.234375 235.835938 134.113281 C 229.753906 142.023438 224.984375 150.875 221.535156 160.203125 C 218.007812 169.519531 215.773438 179.253906 213.542969 189.019531 C 212.410156 193.902344 211.238281 198.804688 209.617188 203.625 C 208.777344 206.023438 207.871094 208.421875 206.660156 210.707031 C 206.105469 211.867188 205.394531 212.960938 204.703125 214.058594 L 202.480469 217.175781 L 198.160156 223.21875 L 194.300781 229.574219 L 193.335938 231.160156 L 192.476562 232.808594 L 190.765625 236.109375 L 189.058594 239.414062 C 188.527344 240.53125 188.0625 241.683594 187.558594 242.816406 C 183.421875 251.835938 180.460938 261.371094 178.199219 271.023438 C 173.664062 290.367188 172.738281 310.492188 174.847656 330.214844 L 175.8125 337.59375 L 176.054688 339.4375 L 176.40625 341.265625 L 177.117188 344.921875 C 177.925781 349.824219 179.324219 354.589844 180.542969 359.402344 C 181.214844 361.789062 182.070312 364.121094 182.820312 366.484375 L 183.984375 370.019531 C 184.402344 371.1875 184.902344 372.324219 185.359375 373.476562 L 188.15625 380.375 L 191.417969 387.0625 C 191.972656 388.167969 192.476562 389.304688 193.074219 390.390625 L 194.9375 393.609375 C 196.203125 395.742188 197.378906 397.933594 198.714844 400.019531 C 201.554688 404.082031 204.148438 408.332031 207.382812 412.101562 C 213.394531 420.007812 220.570312 426.933594 228.015625 433.484375 C 243.316406 446.164062 261.160156 455.699219 280.105469 461.90625 C 299.050781 468.222656 319.042969 471.0625 339.035156 471.945312 " fill-opacity="1" fill-rule="nonzero"/><path fill="#7a018d" d="M 344.722656 472.015625 C 169.183594 452.882812 185.644531 261.425781 259.910156 226.148438 C 249.921875 224.390625 231.5 224.585938 231.5 224.585938 C 256.585938 195.582031 374.957031 195.191406 406.4375 142.878906 C 429.625 206.34375 368.695312 242.335938 317.597656 304.625 C 273.84375 358.050781 269.261719 437.082031 344.722656 472.015625 " fill-opacity="1" fill-rule="nonzero"/><path fill="#4c0071" d="M 346.242188 255.1875 C 333.785156 268.21875 320.9375 281.691406 308.339844 297.050781 C 280.175781 331.410156 268.363281 373.6875 276.699219 410.117188 C 280.40625 426.214844 287.753906 440.585938 298.484375 452.878906 C 261.410156 440.398438 232.648438 378.914062 241.835938 327.46875 C 235.570312 337.140625 230.367188 347.667969 226.800781 358.628906 C 213.464844 224.972656 374.316406 217.328125 398.679688 159.894531 C 404.203125 192.410156 382.464844 217.257812 346.242188 255.1875 " fill-opacity="1" fill-rule="nonzero"/><path fill="#4c0071" d="M 241.835938 327.472656 C 235.820312 337.34375 230.808594 347.832031 227.449219 358.839844 L 226.480469 362.019531 L 226.113281 358.695312 C 225.464844 352.863281 225.101562 346.988281 225.117188 341.105469 C 225.175781 335.21875 225.566406 329.332031 226.378906 323.488281 C 228.027344 311.804688 231.503906 300.328125 236.867188 289.761719 C 242.179688 279.171875 249.265625 269.523438 257.417969 260.976562 C 261.488281 256.695312 265.820312 252.675781 270.328125 248.875 C 274.859375 245.101562 279.578125 241.570312 284.40625 238.207031 C 303.761719 224.789062 324.710938 214.136719 345.335938 203.234375 C 355.625 197.726562 365.808594 192.011719 375.328125 185.316406 C 380.054688 181.941406 384.625 178.300781 388.664062 174.117188 C 390.703125 172.042969 392.535156 169.78125 394.273438 167.441406 C 395.957031 165.066406 397.433594 162.546875 398.679688 159.898438 C 397.566406 162.601562 396.203125 165.207031 394.625 167.683594 C 392.992188 170.121094 391.199219 172.460938 389.21875 174.636719 C 385.292969 179.015625 380.808594 182.859375 376.15625 186.445312 C 366.777344 193.539062 356.589844 199.425781 346.417969 205.203125 L 315.765625 222.214844 C 305.621094 227.964844 295.644531 233.996094 286.152344 240.703125 C 281.410156 244.054688 276.796875 247.582031 272.359375 251.304688 C 267.902344 255.003906 263.625 258.917969 259.609375 263.078125 C 251.574219 271.386719 244.601562 280.742188 239.347656 291.027344 C 234.109375 301.304688 230.476562 312.398438 228.582031 323.824219 C 227.660156 329.542969 227.144531 335.328125 226.960938 341.132812 C 226.808594 346.941406 227.082031 352.753906 227.480469 358.558594 L 226.144531 358.417969 C 229.960938 347.425781 235.289062 337.011719 241.835938 327.472656 " fill-opacity="1" fill-rule="nonzero"/><path fill="#990780" d="M 403.753906 451.0625 L 397.378906 457.4375 C 396.875 456.9375 396.402344 456.441406 395.898438 455.964844 L 350.675781 410.738281 L 322.605469 382.695312 L 350.675781 354.601562 L 378.714844 382.695312 L 389.417969 393.371094 L 403.753906 407.683594 C 415.71875 419.671875 415.71875 439.097656 403.753906 451.0625 " fill-opacity="1" fill-rule="nonzero"/><path fill="#7a018d" d="M 395.898438 455.960938 L 350.675781 410.738281 L 322.605469 382.695312 L 350.675781 354.601562 L 378.714844 382.695312 L 389.417969 393.367188 C 373.527344 409.761719 365.882812 425.207031 395.898438 455.960938 " fill-opacity="1" fill-rule="nonzero"/><path fill="#990780" d="M 403.753906 357.65625 L 370.308594 391.101562 C 359.792969 401.617188 359.449219 418.457031 369.335938 429.34375 C 369.625 429.6875 369.96875 430.027344 370.308594 430.371094 L 322.605469 382.695312 L 350.675781 354.601562 L 397.378906 307.898438 L 403.753906 314.277344 C 415.71875 326.242188 415.71875 345.664062 403.753906 357.65625 " fill-opacity="1" fill-rule="nonzero"/><path fill="#7a018d" d="M 403.753906 357.65625 L 370.308594 391.101562 C 359.792969 401.617188 359.449219 418.457031 369.335938 429.34375 C 317.046875 375.632812 405.257812 345.746094 397.378906 307.898438 L 403.753906 314.277344 C 415.71875 326.242188 415.71875 345.664062 403.753906 357.65625 " fill-opacity="1" fill-rule="nonzero"/><path fill="#990780" d="M 403.753906 357.65625 C 398.945312 363.394531 393.914062 368.914062 388.804688 374.351562 C 383.710938 379.804688 378.484375 385.125 373.230469 390.421875 L 371.261719 392.382812 C 370.675781 393.042969 370.046875 393.664062 369.492188 394.347656 C 368.976562 395.058594 368.40625 395.734375 367.933594 396.472656 C 367.492188 397.238281 366.976562 397.960938 366.585938 398.746094 C 364.894531 401.847656 363.898438 405.308594 363.5 408.847656 C 362.742188 415.941406 364.789062 423.382812 369.335938 429.34375 C 363.777344 424.277344 360.65625 416.453125 361.03125 408.671875 C 361.160156 404.773438 362.199219 400.90625 363.914062 397.375 C 364.3125 396.472656 364.882812 395.664062 365.363281 394.808594 C 365.882812 393.972656 366.507812 393.207031 367.078125 392.40625 C 367.6875 391.636719 368.375 390.925781 369.023438 390.1875 C 369.683594 389.488281 370.332031 388.851562 370.992188 388.179688 C 376.289062 382.929688 381.609375 377.703125 387.0625 372.609375 C 392.5 367.496094 398.015625 362.46875 403.753906 357.65625 " fill-opacity="1" fill-rule="nonzero"/><path fill="#990780" d="M 461.300781 314.277344 L 467.679688 307.902344 C 468.179688 308.398438 468.65625 308.902344 469.15625 309.375 L 514.382812 354.601562 L 542.449219 382.644531 L 514.382812 410.738281 L 486.339844 382.644531 L 475.640625 371.96875 L 461.300781 357.660156 C 449.335938 345.667969 449.335938 326.242188 461.300781 314.277344 " fill-opacity="1" fill-rule="nonzero"/><path fill="#7a018d" d="M 469.15625 309.375 L 514.382812 354.601562 L 542.449219 382.644531 L 514.382812 410.738281 L 486.339844 382.644531 L 475.640625 371.96875 C 491.53125 355.578125 499.175781 340.132812 469.15625 309.375 " fill-opacity="1" fill-rule="nonzero"/><path fill="#990780" d="M 461.300781 407.683594 L 494.746094 374.234375 C 505.265625 363.71875 505.605469 346.878906 495.722656 335.996094 C 495.429688 335.652344 495.089844 335.3125 494.746094 334.964844 L 542.449219 382.644531 L 514.382812 410.738281 L 467.679688 457.441406 L 461.300781 451.0625 C 449.335938 439.097656 449.335938 419.671875 461.300781 407.683594 " fill-opacity="1" fill-rule="nonzero"/><path fill="#7a018d" d="M 461.300781 407.683594 L 494.746094 374.234375 C 505.265625 363.71875 505.605469 346.878906 495.722656 335.996094 C 548.011719 389.707031 459.800781 419.59375 467.679688 457.441406 L 461.300781 451.0625 C 449.335938 439.097656 449.335938 419.671875 461.300781 407.683594 " fill-opacity="1" fill-rule="nonzero"/><path fill="#990780" d="M 461.300781 407.679688 C 466.113281 401.941406 471.144531 396.425781 476.253906 390.988281 C 481.347656 385.535156 486.574219 380.214844 491.824219 374.917969 L 493.792969 372.953125 C 494.378906 372.296875 495.007812 371.671875 495.5625 370.988281 C 496.078125 370.277344 496.652344 369.601562 497.125 368.863281 C 497.566406 368.101562 498.078125 367.378906 498.472656 366.589844 C 500.164062 363.488281 501.15625 360.027344 501.558594 356.488281 C 502.316406 349.394531 500.269531 341.957031 495.722656 335.992188 C 501.28125 341.058594 504.398438 348.882812 504.023438 356.664062 C 503.894531 360.5625 502.859375 364.429688 501.140625 367.960938 C 500.746094 368.863281 500.175781 369.671875 499.691406 370.53125 C 499.175781 371.367188 498.546875 372.128906 497.980469 372.929688 C 497.367188 373.703125 496.679688 374.410156 496.03125 375.148438 C 495.375 375.847656 494.722656 376.488281 494.066406 377.15625 C 488.769531 382.410156 483.449219 387.632812 477.996094 392.730469 C 472.558594 397.839844 467.039062 402.871094 461.300781 407.679688 " fill-opacity="1" fill-rule="nonzero"/></svg>